<?xml version="1.0" encoding="UTF-8" standalone="no"?>
<!-- Created with Inkscape (http://www.inkscape.org/) -->

<svg
   width="128"
   height="128"
   viewBox="0 0 128 128"
   version="1.1"
   id="svg1"
   xml:space="preserve"
   inkscape:version="1.4 (e7c3feb100, 2024-10-09)"
   sodipodi:docname="app.svg"
   xmlns:inkscape="http://www.inkscape.org/namespaces/inkscape"
   xmlns:sodipodi="http://sodipodi.sourceforge.net/DTD/sodipodi-0.dtd"
   xmlns="http://www.w3.org/2000/svg"
   xmlns:svg="http://www.w3.org/2000/svg"><sodipodi:namedview
     id="namedview1"
     pagecolor="#ffffff"
     bordercolor="#111111"
     borderopacity="1"
     inkscape:showpageshadow="false"
     inkscape:pageopacity="0"
     inkscape:pagecheckerboard="1"
     inkscape:deskcolor="#d1d1d1"
     inkscape:document-units="px"
     inkscape:zoom="8"
     inkscape:cx="55.75"
     inkscape:cy="76.5"
     inkscape:window-width="2560"
     inkscape:window-height="1024"
     inkscape:window-x="0"
     inkscape:window-y="3"
     inkscape:window-maximized="1"
     inkscape:current-layer="layer1"
     showgrid="true"
     inkscape:lockguides="true"
     labelstyle="default"
     borderlayer="true"
     showborder="false"
     inkscape:clip-to-page="true"><inkscape:grid
       id="grid1"
       units="mm"
       originx="0"
       originy="0"
       spacingx="1"
       spacingy="1"
       empcolor="#0099e5"
       empopacity="0.30196078"
       color="#0099e5"
       opacity="0.14901961"
       empspacing="1"
       enabled="true"
       visible="true"
       dotted="false" /></sodipodi:namedview><defs
     id="defs1" /><g
     inkscape:label="Layer 1"
     inkscape:groupmode="layer"
     id="layer1"><path
       id="path15"
       style="fill:#000000;stroke-width:0.949332"
       d="m 9.5,9.5 v 109 H 118.49968 C 118.5,81.03125 118.5,47.820312 118.5,9.5 Z m 2.07619,107.29688 H 117.4619 c 0.13648,9.45173 -1.03809,-76.64063 -1.03809,-65.570318 V 86.140625 115.94531 H 11.57619 c 0.100665,-17.496873 0,-38.32031 0,-55.35156 z"
       sodipodi:nodetypes="ccccccccccccc" /><path
       id="path8-23"
       style="fill:#ffffff;stroke-width:1.25791"
       d="M 35.000488,30 V 32.498785 35 h 2.499999 2.500001 V 32.498785 30 h -2.500001 z" /><path
       id="path8-23-5"
       style="font-variation-settings:normal;opacity:1;vector-effect:none;fill:#ffffff;fill-opacity:1;stroke-width:1.25791;stroke-linecap:butt;stroke-linejoin:miter;stroke-miterlimit:4;stroke-dasharray:none;stroke-dashoffset:0;stroke-opacity:1;-inkscape-stroke:none;stop-color:#000000;stop-opacity:1"
       d="M 45,30 V 32.498785 35 H 47.499999 50 V 32.498785 30 h -2.500001 z" /><path
       id="path8-23-5-7"
       style="font-variation-settings:normal;vector-effect:none;fill:#ffffff;fill-opacity:1;stroke-width:1.25791;stroke-linecap:butt;stroke-linejoin:miter;stroke-miterlimit:4;stroke-dasharray:none;stroke-dashoffset:0;stroke-opacity:1;-inkscape-stroke:none;stop-color:#000000"
       d="M 55,30 V 32.498785 35 H 57.499999 60 V 32.498785 30 h -2.500001 z" /><path
       id="path8-23-5-0"
       style="font-variation-settings:normal;vector-effect:none;fill:#ffffff;fill-opacity:1;stroke-width:1.25791;stroke-linecap:butt;stroke-linejoin:miter;stroke-miterlimit:4;stroke-dasharray:none;stroke-dashoffset:0;stroke-opacity:1;-inkscape-stroke:none;stop-color:#000000"
       d="M 75,30 V 32.498785 35 H 77.499999 80 V 32.498785 30 h -2.500001 z" /><path
       id="path8-23-5-7-6"
       style="font-variation-settings:normal;vector-effect:none;fill:#ffffff;fill-opacity:1;stroke-width:1.25791;stroke-linecap:butt;stroke-linejoin:miter;stroke-miterlimit:4;stroke-dasharray:none;stroke-dashoffset:0;stroke-opacity:1;-inkscape-stroke:none;stop-color:#000000"
       d="M 85,30 V 32.498785 35 H 87.499999 90 V 32.498785 30 h -2.500001 z" /><path
       id="path8-23-8"
       style="fill:#ffffff;stroke-width:1.25791"
       d="M 35.000488,50 V 52.498785 55 h 2.499999 2.500001 V 52.498785 50 h -2.500001 z" /><path
       id="path8-23-5-79"
       style="font-variation-settings:normal;vector-effect:none;fill:#ffffff;fill-opacity:1;stroke-width:1.25791;stroke-linecap:butt;stroke-linejoin:miter;stroke-miterlimit:4;stroke-dasharray:none;stroke-dashoffset:0;stroke-opacity:1;-inkscape-stroke:none;stop-color:#000000"
       d="M 45,50 V 52.498785 55 H 47.499999 50 V 52.498785 50 h -2.500001 z" /><path
       id="path8-23-6-0"
       style="fill:#ffffff;stroke-width:1.25791"
       d="M 65.000488,50 V 52.498785 55 h 2.499999 2.500001 V 52.498785 50 h -2.500001 z" /><path
       id="path8-23-5-0-2"
       style="font-variation-settings:normal;vector-effect:none;fill:#ffffff;fill-opacity:1;stroke-width:1.25791;stroke-linecap:butt;stroke-linejoin:miter;stroke-miterlimit:4;stroke-dasharray:none;stroke-dashoffset:0;stroke-opacity:1;-inkscape-stroke:none;stop-color:#000000"
       d="M 75,50 V 52.498785 55 H 77.499999 80 V 52.498785 50 h -2.500001 z" /><path
       id="path8-23-2"
       style="fill:#ffffff;stroke-width:1.25791"
       d="M 35.000488,70 V 72.498785 75 h 2.499999 2.500001 V 72.498785 70 h -2.500001 z" /><path
       id="path8-23-2-5"
       style="fill:#ffffff;stroke-width:2.75594"
       d="M 16.000002,104 V 106.49878 109 H 27.999997 40.000002 V 106.49878 104 H 27.999997 Z" /><path
       id="path8-23-2-5-2"
       style="fill:#ffffff;stroke-width:2.75594"
       d="M 45.000002,104 V 106.49878 109 H 56.999997 69.000002 V 106.49878 104 H 56.999997 Z" /><path
       id="path8-23-2-5-2-7"
       style="fill:#ffffff;stroke-width:2.75594"
       d="M 88.000005,104 V 106.49878 109 H 100 112 V 106.49878 104 h -12 z" /><path
       id="path8-23-5-9"
       style="font-variation-settings:normal;vector-effect:none;fill:#ffffff;fill-opacity:1;stroke-width:1.25791;stroke-linecap:butt;stroke-linejoin:miter;stroke-miterlimit:4;stroke-dasharray:none;stroke-dashoffset:0;stroke-opacity:1;-inkscape-stroke:none;stop-color:#000000"
       d="M 45,70 V 72.498785 75 H 47.499999 50 V 72.498785 70 h -2.500001 z" /><path
       id="path8-23-5-7-3"
       style="font-variation-settings:normal;vector-effect:none;fill:#ffffff;fill-opacity:1;stroke-width:1.25791;stroke-linecap:butt;stroke-linejoin:miter;stroke-miterlimit:4;stroke-dasharray:none;stroke-dashoffset:0;stroke-opacity:1;-inkscape-stroke:none;stop-color:#000000"
       d="M 55,70 V 72.498785 75 H 57.499999 60 V 72.498785 70 h -2.500001 z" /><path
       id="path8-23-5-0-1"
       style="font-variation-settings:normal;vector-effect:none;fill:#ffffff;fill-opacity:1;stroke-width:1.25791;stroke-linecap:butt;stroke-linejoin:miter;stroke-miterlimit:4;stroke-dasharray:none;stroke-dashoffset:0;stroke-opacity:1;-inkscape-stroke:none;stop-color:#000000"
       d="M 75,70 V 72.498785 75 H 77.499999 80 V 72.498785 70 h -2.500001 z" /><path
       id="path8-23-5-7-6-9"
       style="font-variation-settings:normal;vector-effect:none;fill:#ffffff;fill-opacity:1;stroke-width:1.25791;stroke-linecap:butt;stroke-linejoin:miter;stroke-miterlimit:4;stroke-dasharray:none;stroke-dashoffset:0;stroke-opacity:1;-inkscape-stroke:none;stop-color:#000000"
       d="M 85,70 V 72.498785 75 H 87.499999 90 V 72.498785 70 h -2.500001 z" /></g></svg>
