<?xml version="1.0" encoding="UTF-8" standalone="no"?>
<!-- Created with Inkscape (http://www.inkscape.org/) -->

<svg
   version="1.1"
   id="svg1"
   width="8"
   height="8"
   viewBox="0 0 8 8"
   sodipodi:docname="ht-diag-right-symbolic.svg"
   inkscape:version="1.4 (e7c3feb100, 2024-10-09)"
   xmlns:inkscape="http://www.inkscape.org/namespaces/inkscape"
   xmlns:sodipodi="http://sodipodi.sourceforge.net/DTD/sodipodi-0.dtd"
   xmlns="http://www.w3.org/2000/svg"
   xmlns:svg="http://www.w3.org/2000/svg">
  <defs
     id="defs1" />
  <sodipodi:namedview
     id="namedview1"
     pagecolor="#ffffff"
     bordercolor="#111111"
     borderopacity="1"
     inkscape:showpageshadow="0"
     inkscape:pageopacity="0"
     inkscape:pagecheckerboard="1"
     inkscape:deskcolor="#d1d1d1"
     showgrid="true"
     inkscape:zoom="101.625"
     inkscape:cx="4.00492"
     inkscape:cy="4.0098401"
     inkscape:window-width="2557"
     inkscape:window-height="1010"
     inkscape:window-x="0"
     inkscape:window-y="0"
     inkscape:window-maximized="1"
     inkscape:current-layer="g1">
    <inkscape:grid
       id="grid1"
       units="px"
       originx="0"
       originy="0"
       spacingx="1"
       spacingy="1"
       empcolor="#0099e5"
       empopacity="0.30196078"
       color="#0099e5"
       opacity="0.14901961"
       empspacing="1"
       enabled="true"
       visible="true" />
  </sodipodi:namedview>
  <g
     inkscape:groupmode="layer"
     inkscape:label="Image"
     id="g1">
    <path
       id="rect2"
       style="stroke-width:1.25791"
       d="M 1 1 L 1 8 L 8 8 L 8 1 L 1 1 z M 2 2 L 7 2 L 7 7 L 2 7 L 2 2 z " />
    <path
       id="rect5"
       style="stroke-width:1.25791"
       d="M 6,3 V 4 H 7 V 3 Z" />
    <path
       id="rect5-1"
       style="stroke-width:1.25791"
       d="M 5,2 V 3 H 6 V 2 Z" />
    <path
       id="rect5-3"
       style="stroke-width:1.25791"
       d="M 2,2 V 3 H 3 V 2 Z" />
    <path
       id="rect5-6"
       style="stroke-width:1.25791"
       d="M 3,3 V 4 H 4 V 3 Z" />
    <path
       id="rect5-2"
       style="stroke-width:1.25791"
       d="M 4,4 V 5 H 5 V 4 Z" />
    <path
       id="rect5-5"
       style="stroke-width:1.25791"
       d="M 5,5 V 6 H 6 V 5 Z" />
    <path
       id="rect5-9"
       style="stroke-width:1.25791"
       d="M 6,6 V 7 H 7 V 6 Z" />
    <path
       id="rect5-29"
       style="stroke-width:1.25791"
       d="M 2,5 V 6 H 3 V 5 Z" />
    <path
       id="rect5-7"
       style="stroke-width:1.25791"
       d="M 3,6 V 7 H 4 V 6 Z" />
  </g>
</svg>
