<?xml version="1.0" encoding="UTF-8" standalone="no"?>
<!-- Created with Inkscape (http://www.inkscape.org/) -->

<svg
   version="1.1"
   id="svg1"
   width="8"
   height="8"
   viewBox="0 0 8 8"
   sodipodi:docname="ht-full-symbolic.svg"
   inkscape:version="1.4 (e7c3feb100, 2024-10-09)"
   xmlns:inkscape="http://www.inkscape.org/namespaces/inkscape"
   xmlns:sodipodi="http://sodipodi.sourceforge.net/DTD/sodipodi-0.dtd"
   xmlns="http://www.w3.org/2000/svg"
   xmlns:svg="http://www.w3.org/2000/svg">
  <defs
     id="defs1" />
  <sodipodi:namedview
     id="namedview1"
     pagecolor="#ffffff"
     bordercolor="#111111"
     borderopacity="1"
     inkscape:showpageshadow="0"
     inkscape:pageopacity="0"
     inkscape:pagecheckerboard="1"
     inkscape:deskcolor="#d1d1d1"
     showgrid="true"
     inkscape:zoom="101.625"
     inkscape:cx="4.00492"
     inkscape:cy="4.0098401"
     inkscape:window-width="2557"
     inkscape:window-height="1010"
     inkscape:window-x="0"
     inkscape:window-y="0"
     inkscape:window-maximized="1"
     inkscape:current-layer="g1">
    <inkscape:grid
       id="grid1"
       units="px"
       originx="0"
       originy="0"
       spacingx="1"
       spacingy="1"
       empcolor="#0099e5"
       empopacity="0.30196078"
       color="#0099e5"
       opacity="0.14901961"
       empspacing="1"
       enabled="true"
       visible="true" />
  </sodipodi:namedview>
  <g
     inkscape:groupmode="layer"
     inkscape:label="Image"
     id="g1">
    <path
       id="rect1"
       style="baseline-shift:baseline;display:inline;overflow:visible;vector-effect:none;enable-background:accumulate;stop-color:#000000;stop-opacity:1"
       d="M 1 1 L 1 4 L 2 4 L 2 3 L 3 3 L 3 2 L 4 2 L 4 1 L 2 1 L 1 1 z M 4 2 L 4 3 L 5 3 L 5 2 L 4 2 z M 5 3 L 5 4 L 6 4 L 6 3 L 5 3 z M 6 4 L 6 5 L 7 5 L 7 4 L 6 4 z M 7 5 L 7 7 L 8 7 L 8 5 L 7 5 z M 7 7 L 5 7 L 5 8 L 7 8 L 7 7 z M 5 7 L 5 6 L 4 6 L 4 7 L 5 7 z M 4 6 L 4 5 L 3 5 L 3 6 L 4 6 z M 3 5 L 3 4 L 2 4 L 2 5 L 3 5 z M 3 4 L 4 4 L 4 3 L 3 3 L 3 4 z " />
    <path
       id="rect2"
       style="stroke-width:1.25791"
       d="M 1,1 H 8 V 8 H 1 Z" />
  </g>
</svg>
