<?xml version="1.0" encoding="UTF-8" standalone="no"?>
<svg
   viewBox="0 0 128 128"
   version="1.1"
   id="svg165"
   sodipodi:docname="app.svg"
   inkscape:version="1.4 (e7c3feb100, 2024-10-09)"
   xmlns:inkscape="http://www.inkscape.org/namespaces/inkscape"
   xmlns:sodipodi="http://sodipodi.sourceforge.net/DTD/sodipodi-0.dtd"
   xmlns="http://www.w3.org/2000/svg"
   xmlns:svg="http://www.w3.org/2000/svg">
  <defs
     id="defs165" />
  <sodipodi:namedview
     id="namedview165"
     pagecolor="#ffffff"
     bordercolor="#111111"
     borderopacity="1"
     inkscape:showpageshadow="0"
     inkscape:pageopacity="0"
     inkscape:pagecheckerboard="1"
     inkscape:deskcolor="#d1d1d1"
     showgrid="true"
     inkscape:zoom="6.3203125"
     inkscape:cx="63.92089"
     inkscape:cy="64"
     inkscape:window-width="2555"
     inkscape:window-height="1009"
     inkscape:window-x="1"
     inkscape:window-y="1"
     inkscape:window-maximized="1"
     inkscape:current-layer="svg165">
    <inkscape:grid
       id="grid165"
       units="px"
       originx="0"
       originy="0"
       spacingx="1"
       spacingy="1"
       empcolor="#0099e5"
       empopacity="0.30196078"
       color="#0099e5"
       opacity="0.14901961"
       empspacing="1"
       enabled="true"
       visible="true" />
  </sodipodi:namedview>
  <rect
     style="fill:#ffffff;stroke-width:1.25791;-inkscape-stroke:none"
     id="rect167"
     width="84"
     height="40"
     x="6"
     y="74" />
  <rect
     style="fill:#ffffff;stroke-width:1.25791;-inkscape-stroke:none"
     id="rect166"
     width="84"
     height="40"
     x="18"
     y="46" />
  <rect
     style="fill:#ffffff;stroke-width:1.42344;-inkscape-stroke:none"
     id="rect165"
     width="84"
     height="40"
     x="30"
     y="18" />
  <!-- Center the usable space (108×108) in the 128×128 canvas (27×27 4px blocks) -->
  <g
     transform="translate(10, 10)"
     id="g165">
    <!-- Bottom tile -->
    <g
       id="g56">
      <!-- Tile outline -->
      <rect
         x="0"
         y="68"
         width="4"
         height="4"
         fill="black"
         id="rect1" />
      <rect
         x="4"
         y="68"
         width="4"
         height="4"
         fill="black"
         id="rect2" />
      <rect
         x="8"
         y="68"
         width="4"
         height="4"
         fill="black"
         id="rect3" />
      <rect
         x="12"
         y="68"
         width="4"
         height="4"
         fill="black"
         id="rect4" />
      <rect
         x="16"
         y="68"
         width="4"
         height="4"
         fill="black"
         id="rect5" />
      <rect
         x="20"
         y="68"
         width="4"
         height="4"
         fill="black"
         id="rect6" />
      <rect
         x="24"
         y="68"
         width="4"
         height="4"
         fill="black"
         id="rect7" />
      <rect
         x="28"
         y="68"
         width="4"
         height="4"
         fill="black"
         id="rect8" />
      <rect
         x="32"
         y="68"
         width="4"
         height="4"
         fill="black"
         id="rect9" />
      <rect
         x="36"
         y="68"
         width="4"
         height="4"
         fill="black"
         id="rect10" />
      <rect
         x="40"
         y="68"
         width="4"
         height="4"
         fill="black"
         id="rect11" />
      <rect
         x="44"
         y="68"
         width="4"
         height="4"
         fill="black"
         id="rect12" />
      <rect
         x="48"
         y="68"
         width="4"
         height="4"
         fill="black"
         id="rect13" />
      <rect
         x="52"
         y="68"
         width="4"
         height="4"
         fill="black"
         id="rect14" />
      <rect
         x="56"
         y="68"
         width="4"
         height="4"
         fill="black"
         id="rect15" />
      <rect
         x="60"
         y="68"
         width="4"
         height="4"
         fill="black"
         id="rect16" />
      <rect
         x="64"
         y="68"
         width="4"
         height="4"
         fill="black"
         id="rect17" />
      <rect
         x="68"
         y="68"
         width="4"
         height="4"
         fill="black"
         id="rect18" />
      <rect
         x="72"
         y="68"
         width="4"
         height="4"
         fill="black"
         id="rect19" />
      <rect
         x="0"
         y="72"
         width="4"
         height="4"
         fill="black"
         id="rect20" />
      <rect
         x="72"
         y="72"
         width="4"
         height="4"
         fill="black"
         id="rect21" />
      <rect
         x="0"
         y="76"
         width="4"
         height="4"
         fill="black"
         id="rect22" />
      <rect
         x="72"
         y="76"
         width="4"
         height="4"
         fill="black"
         id="rect23" />
      <rect
         x="0"
         y="80"
         width="4"
         height="4"
         fill="black"
         id="rect24" />
      <rect
         x="72"
         y="80"
         width="4"
         height="4"
         fill="black"
         id="rect25" />
      <rect
         x="0"
         y="84"
         width="4"
         height="4"
         fill="black"
         id="rect26" />
      <rect
         x="72"
         y="84"
         width="4"
         height="4"
         fill="black"
         id="rect27" />
      <rect
         x="0"
         y="88"
         width="4"
         height="4"
         fill="black"
         id="rect28" />
      <rect
         x="72"
         y="88"
         width="4"
         height="4"
         fill="black"
         id="rect29" />
      <rect
         x="0"
         y="92"
         width="4"
         height="4"
         fill="black"
         id="rect30" />
      <rect
         x="72"
         y="92"
         width="4"
         height="4"
         fill="black"
         id="rect31" />
      <rect
         x="0"
         y="96"
         width="4"
         height="4"
         fill="black"
         id="rect32" />
      <rect
         x="4"
         y="96"
         width="4"
         height="4"
         fill="black"
         id="rect33" />
      <rect
         x="8"
         y="96"
         width="4"
         height="4"
         fill="black"
         id="rect34" />
      <rect
         x="12"
         y="96"
         width="4"
         height="4"
         fill="black"
         id="rect35" />
      <rect
         x="16"
         y="96"
         width="4"
         height="4"
         fill="black"
         id="rect36" />
      <rect
         x="20"
         y="96"
         width="4"
         height="4"
         fill="black"
         id="rect37" />
      <rect
         x="24"
         y="96"
         width="4"
         height="4"
         fill="black"
         id="rect38" />
      <rect
         x="28"
         y="96"
         width="4"
         height="4"
         fill="black"
         id="rect39" />
      <rect
         x="32"
         y="96"
         width="4"
         height="4"
         fill="black"
         id="rect40" />
      <rect
         x="36"
         y="96"
         width="4"
         height="4"
         fill="black"
         id="rect41" />
      <rect
         x="40"
         y="96"
         width="4"
         height="4"
         fill="black"
         id="rect42" />
      <rect
         x="44"
         y="96"
         width="4"
         height="4"
         fill="black"
         id="rect43" />
      <rect
         x="48"
         y="96"
         width="4"
         height="4"
         fill="black"
         id="rect44" />
      <rect
         x="52"
         y="96"
         width="4"
         height="4"
         fill="black"
         id="rect45" />
      <rect
         x="56"
         y="96"
         width="4"
         height="4"
         fill="black"
         id="rect46" />
      <rect
         x="60"
         y="96"
         width="4"
         height="4"
         fill="black"
         id="rect47" />
      <rect
         x="64"
         y="96"
         width="4"
         height="4"
         fill="black"
         id="rect48" />
      <rect
         x="68"
         y="96"
         width="4"
         height="4"
         fill="black"
         id="rect49" />
      <rect
         x="72"
         y="96"
         width="4"
         height="4"
         fill="black"
         id="rect50" />
      <!-- Dots pattern -->
      <rect
         x="16"
         y="76"
         width="4"
         height="4"
         fill="black"
         id="rect51" />
      <rect
         x="36"
         y="76"
         width="4"
         height="4"
         fill="black"
         id="rect52" />
      <rect
         x="56"
         y="76"
         width="4"
         height="4"
         fill="black"
         id="rect53" />
      <rect
         x="16"
         y="84"
         width="4"
         height="4"
         fill="black"
         id="rect54" />
      <rect
         x="36"
         y="84"
         width="4"
         height="4"
         fill="black"
         id="rect55" />
      <rect
         x="56"
         y="84"
         width="4"
         height="4"
         fill="black"
         id="rect56" />
    </g>
    <!-- Middle tile -->
    <g
       id="g111">
      <rect
         x="12"
         y="40"
         width="4"
         height="4"
         fill="black"
         id="rect57" />
      <rect
         x="16"
         y="40"
         width="4"
         height="4"
         fill="black"
         id="rect58" />
      <rect
         x="20"
         y="40"
         width="4"
         height="4"
         fill="black"
         id="rect59" />
      <rect
         x="24"
         y="40"
         width="4"
         height="4"
         fill="black"
         id="rect60" />
      <rect
         x="28"
         y="40"
         width="4"
         height="4"
         fill="black"
         id="rect61" />
      <rect
         x="32"
         y="40"
         width="4"
         height="4"
         fill="black"
         id="rect62" />
      <rect
         x="36"
         y="40"
         width="4"
         height="4"
         fill="black"
         id="rect63" />
      <rect
         x="40"
         y="40"
         width="4"
         height="4"
         fill="black"
         id="rect64" />
      <rect
         x="44"
         y="40"
         width="4"
         height="4"
         fill="black"
         id="rect65" />
      <rect
         x="48"
         y="40"
         width="4"
         height="4"
         fill="black"
         id="rect66" />
      <rect
         x="52"
         y="40"
         width="4"
         height="4"
         fill="black"
         id="rect67" />
      <rect
         x="56"
         y="40"
         width="4"
         height="4"
         fill="black"
         id="rect68" />
      <rect
         x="60"
         y="40"
         width="4"
         height="4"
         fill="black"
         id="rect69" />
      <rect
         x="64"
         y="40"
         width="4"
         height="4"
         fill="black"
         id="rect70" />
      <rect
         x="68"
         y="40"
         width="4"
         height="4"
         fill="black"
         id="rect71" />
      <rect
         x="72"
         y="40"
         width="4"
         height="4"
         fill="black"
         id="rect72" />
      <rect
         x="76"
         y="40"
         width="4"
         height="4"
         fill="black"
         id="rect73" />
      <rect
         x="80"
         y="40"
         width="4"
         height="4"
         fill="black"
         id="rect74" />
      <rect
         x="84"
         y="40"
         width="4"
         height="4"
         fill="black"
         id="rect75" />
      <rect
         x="12"
         y="44"
         width="4"
         height="4"
         fill="black"
         id="rect76" />
      <rect
         x="84"
         y="44"
         width="4"
         height="4"
         fill="black"
         id="rect77" />
      <rect
         x="12"
         y="48"
         width="4"
         height="4"
         fill="black"
         id="rect78" />
      <rect
         x="84"
         y="48"
         width="4"
         height="4"
         fill="black"
         id="rect79" />
      <rect
         x="12"
         y="52"
         width="4"
         height="4"
         fill="black"
         id="rect80" />
      <rect
         x="84"
         y="52"
         width="4"
         height="4"
         fill="black"
         id="rect81" />
      <rect
         x="12"
         y="56"
         width="4"
         height="4"
         fill="black"
         id="rect82" />
      <rect
         x="84"
         y="56"
         width="4"
         height="4"
         fill="black"
         id="rect83" />
      <rect
         x="12"
         y="60"
         width="4"
         height="4"
         fill="black"
         id="rect84" />
      <rect
         x="84"
         y="60"
         width="4"
         height="4"
         fill="black"
         id="rect85" />
      <rect
         x="12"
         y="64"
         width="4"
         height="4"
         fill="black"
         id="rect86" />
      <rect
         x="84"
         y="64"
         width="4"
         height="4"
         fill="black"
         id="rect87" />
      <rect
         x="12"
         y="68"
         width="4"
         height="4"
         fill="black"
         id="rect88" />
      <rect
         x="16"
         y="68"
         width="4"
         height="4"
         fill="black"
         id="rect89" />
      <rect
         x="20"
         y="68"
         width="4"
         height="4"
         fill="black"
         id="rect90" />
      <rect
         x="24"
         y="68"
         width="4"
         height="4"
         fill="black"
         id="rect91" />
      <rect
         x="28"
         y="68"
         width="4"
         height="4"
         fill="black"
         id="rect92" />
      <rect
         x="32"
         y="68"
         width="4"
         height="4"
         fill="black"
         id="rect93" />
      <rect
         x="36"
         y="68"
         width="4"
         height="4"
         fill="black"
         id="rect94" />
      <rect
         x="40"
         y="68"
         width="4"
         height="4"
         fill="black"
         id="rect95" />
      <rect
         x="44"
         y="68"
         width="4"
         height="4"
         fill="black"
         id="rect96" />
      <rect
         x="48"
         y="68"
         width="4"
         height="4"
         fill="black"
         id="rect97" />
      <rect
         x="52"
         y="68"
         width="4"
         height="4"
         fill="black"
         id="rect98" />
      <rect
         x="56"
         y="68"
         width="4"
         height="4"
         fill="black"
         id="rect99" />
      <rect
         x="60"
         y="68"
         width="4"
         height="4"
         fill="black"
         id="rect100" />
      <rect
         x="64"
         y="68"
         width="4"
         height="4"
         fill="black"
         id="rect101" />
      <rect
         x="68"
         y="68"
         width="4"
         height="4"
         fill="black"
         id="rect102" />
      <rect
         x="72"
         y="68"
         width="4"
         height="4"
         fill="black"
         id="rect103" />
      <rect
         x="76"
         y="68"
         width="4"
         height="4"
         fill="black"
         id="rect104" />
      <rect
         x="80"
         y="68"
         width="4"
         height="4"
         fill="black"
         id="rect105" />
      <rect
         x="84"
         y="68"
         width="4"
         height="4"
         fill="black"
         id="rect106" />
      <!-- Bamboo pattern -->
      <rect
         x="36"
         y="48"
         width="4"
         height="16"
         fill="black"
         id="rect107" />
      <rect
         x="48"
         y="44"
         width="4"
         height="4"
         fill="black"
         id="rect108" />
      <rect
         x="48"
         y="52"
         width="4"
         height="4"
         fill="black"
         id="rect109" />
      <rect
         x="48"
         y="60"
         width="4"
         height="4"
         fill="black"
         id="rect110" />
      <rect
         x="60"
         y="48"
         width="4"
         height="16"
         fill="black"
         id="rect111" />
    </g>
    <!-- Top tile -->
    <g
       id="g164">
      <rect
         x="24"
         y="12"
         width="4"
         height="4"
         fill="black"
         id="rect112" />
      <rect
         x="28"
         y="12"
         width="4"
         height="4"
         fill="black"
         id="rect113" />
      <rect
         x="32"
         y="12"
         width="4"
         height="4"
         fill="black"
         id="rect114" />
      <rect
         x="36"
         y="12"
         width="4"
         height="4"
         fill="black"
         id="rect115" />
      <rect
         x="40"
         y="12"
         width="4"
         height="4"
         fill="black"
         id="rect116" />
      <rect
         x="44"
         y="12"
         width="4"
         height="4"
         fill="black"
         id="rect117" />
      <rect
         x="48"
         y="12"
         width="4"
         height="4"
         fill="black"
         id="rect118" />
      <rect
         x="52"
         y="12"
         width="4"
         height="4"
         fill="black"
         id="rect119" />
      <rect
         x="56"
         y="12"
         width="4"
         height="4"
         fill="black"
         id="rect120" />
      <rect
         x="60"
         y="12"
         width="4"
         height="4"
         fill="black"
         id="rect121" />
      <rect
         x="64"
         y="12"
         width="4"
         height="4"
         fill="black"
         id="rect122" />
      <rect
         x="68"
         y="12"
         width="4"
         height="4"
         fill="black"
         id="rect123" />
      <rect
         x="72"
         y="12"
         width="4"
         height="4"
         fill="black"
         id="rect124" />
      <rect
         x="76"
         y="12"
         width="4"
         height="4"
         fill="black"
         id="rect125" />
      <rect
         x="80"
         y="12"
         width="4"
         height="4"
         fill="black"
         id="rect126" />
      <rect
         x="84"
         y="12"
         width="4"
         height="4"
         fill="black"
         id="rect127" />
      <rect
         x="88"
         y="12"
         width="4"
         height="4"
         fill="black"
         id="rect128" />
      <rect
         x="92"
         y="12"
         width="4"
         height="4"
         fill="black"
         id="rect129" />
      <rect
         x="96"
         y="12"
         width="4"
         height="4"
         fill="black"
         id="rect130" />
      <rect
         x="24"
         y="16"
         width="4"
         height="4"
         fill="black"
         id="rect131" />
      <rect
         x="96"
         y="16"
         width="4"
         height="4"
         fill="black"
         id="rect132" />
      <rect
         x="24"
         y="20"
         width="4"
         height="4"
         fill="black"
         id="rect133" />
      <rect
         x="96"
         y="20"
         width="4"
         height="4"
         fill="black"
         id="rect134" />
      <rect
         x="24"
         y="24"
         width="4"
         height="4"
         fill="black"
         id="rect135" />
      <rect
         x="96"
         y="24"
         width="4"
         height="4"
         fill="black"
         id="rect136" />
      <rect
         x="24"
         y="28"
         width="4"
         height="4"
         fill="black"
         id="rect137" />
      <rect
         x="96"
         y="28"
         width="4"
         height="4"
         fill="black"
         id="rect138" />
      <rect
         x="24"
         y="32"
         width="4"
         height="4"
         fill="black"
         id="rect139" />
      <rect
         x="96"
         y="32"
         width="4"
         height="4"
         fill="black"
         id="rect140" />
      <rect
         x="24"
         y="36"
         width="4"
         height="4"
         fill="black"
         id="rect141" />
      <rect
         x="96"
         y="36"
         width="4"
         height="4"
         fill="black"
         id="rect142" />
      <rect
         x="24"
         y="40"
         width="4"
         height="4"
         fill="black"
         id="rect143" />
      <rect
         x="28"
         y="40"
         width="4"
         height="4"
         fill="black"
         id="rect144" />
      <rect
         x="32"
         y="40"
         width="4"
         height="4"
         fill="black"
         id="rect145" />
      <rect
         x="36"
         y="40"
         width="4"
         height="4"
         fill="black"
         id="rect146" />
      <rect
         x="40"
         y="40"
         width="4"
         height="4"
         fill="black"
         id="rect147" />
      <rect
         x="44"
         y="40"
         width="4"
         height="4"
         fill="black"
         id="rect148" />
      <rect
         x="48"
         y="40"
         width="4"
         height="4"
         fill="black"
         id="rect149" />
      <rect
         x="52"
         y="40"
         width="4"
         height="4"
         fill="black"
         id="rect150" />
      <rect
         x="56"
         y="40"
         width="4"
         height="4"
         fill="black"
         id="rect151" />
      <rect
         x="60"
         y="40"
         width="4"
         height="4"
         fill="black"
         id="rect152" />
      <rect
         x="64"
         y="40"
         width="4"
         height="4"
         fill="black"
         id="rect153" />
      <rect
         x="68"
         y="40"
         width="4"
         height="4"
         fill="black"
         id="rect154" />
      <rect
         x="72"
         y="40"
         width="4"
         height="4"
         fill="black"
         id="rect155" />
      <rect
         x="76"
         y="40"
         width="4"
         height="4"
         fill="black"
         id="rect156" />
      <rect
         x="80"
         y="40"
         width="4"
         height="4"
         fill="black"
         id="rect157" />
      <rect
         x="84"
         y="40"
         width="4"
         height="4"
         fill="black"
         id="rect158" />
      <rect
         x="88"
         y="40"
         width="4"
         height="4"
         fill="black"
         id="rect159" />
      <rect
         x="92"
         y="40"
         width="4"
         height="4"
         fill="black"
         id="rect160" />
      <rect
         x="96"
         y="40"
         width="4"
         height="4"
         fill="black"
         id="rect161" />
      <!-- Red Dragon pattern (中) -->
      <rect
         x="48"
         y="16"
         width="24"
         height="4"
         fill="black"
         id="rect162" />
      <rect
         x="48"
         y="36"
         width="24"
         height="4"
         fill="black"
         id="rect163" />
      <rect
         x="58"
         y="16"
         width="4"
         height="24"
         fill="black"
         id="rect164" />
    </g>
  </g>
</svg>
