<?xml version="1.0" encoding="UTF-8" standalone="no"?>
<!-- Created with Inkscape (http://www.inkscape.org/) -->

<svg
   width="128"
   height="128"
   viewBox="0 0 128 128"
   version="1.1"
   id="svg1"
   xml:space="preserve"
   inkscape:version="1.4 (e7c3feb100, 2024-10-09)"
   sodipodi:docname="app.svg"
   xmlns:inkscape="http://www.inkscape.org/namespaces/inkscape"
   xmlns:sodipodi="http://sodipodi.sourceforge.net/DTD/sodipodi-0.dtd"
   xmlns="http://www.w3.org/2000/svg"
   xmlns:svg="http://www.w3.org/2000/svg"><sodipodi:namedview
     id="namedview1"
     pagecolor="#ffffff"
     bordercolor="#111111"
     borderopacity="1"
     inkscape:showpageshadow="false"
     inkscape:pageopacity="0"
     inkscape:pagecheckerboard="true"
     inkscape:deskcolor="#d1d1d1"
     inkscape:document-units="px"
     inkscape:zoom="1"
     inkscape:cx="57"
     inkscape:cy="79.5"
     inkscape:window-width="2557"
     inkscape:window-height="1027"
     inkscape:window-x="0"
     inkscape:window-y="0"
     inkscape:window-maximized="1"
     inkscape:current-layer="layer1"
     showgrid="true"
     inkscape:lockguides="true"
     labelstyle="default"
     borderlayer="false"
     showborder="true"
     inkscape:clip-to-page="true"
     inkscape:antialias-rendering="false"><inkscape:grid
       id="grid1"
       units="px"
       originx="0"
       originy="0"
       spacingx="1"
       spacingy="1"
       empcolor="#0099e5"
       empopacity="0.30196078"
       color="#0099e5"
       opacity="0.14901961"
       empspacing="1"
       enabled="true"
       visible="true"
       dotted="false" /></sodipodi:namedview><defs
     id="defs1" /><g
     inkscape:label="Layer 1"
     inkscape:groupmode="layer"
     id="layer1"><path
       id="rect1"
       style="stroke-width:1.25791"
       d="M 62 36 L 62 38 L 64 38 L 64 36 L 62 36 z M 62 38 L 60 38 L 60 40 L 62 40 L 62 38 z M 60 40 L 58 40 L 58 42 L 60 42 L 60 40 z M 58 42 L 56 42 L 56 44 L 58 44 L 58 42 z M 56 44 L 54 44 L 54 46 L 56 46 L 56 44 z M 54 46 L 52 46 L 52 48 L 54 48 L 54 46 z M 52 48 L 50 48 L 50 50 L 52 50 L 52 48 z M 50 50 L 48 50 L 48 52 L 50 52 L 50 50 z M 48 52 L 46 52 L 46 54 L 48 54 L 48 52 z M 46 54 L 44 54 L 44 56 L 46 56 L 46 54 z M 44 56 L 42 56 L 42 58 L 44 58 L 44 56 z M 42 58 L 40 58 L 40 60 L 42 60 L 42 58 z M 40 60 L 38 60 L 38 62 L 40 62 L 40 60 z M 38 62 L 36 62 L 36 64 L 38 64 L 38 62 z M 36 64 L 34 64 L 34 66 L 36 66 L 36 64 z " /><path
       id="rect1-5"
       style="stroke-width:1.25791"
       d="m 94,64 h -2 v 2 h 2 z m -2,0 v -2 h -2 v 2 z m -2,-2 v -2 h -2 v 2 z m -2,-2 v -2 h -2 v 2 z m -2,-2 v -2 h -2 v 2 z m -2,-2 v -2 h -2 v 2 z m -2,-2 v -2 h -2 v 2 z m -2,-2 v -2 h -2 v 2 z m -2,-2 v -2 h -2 v 2 z m -2,-2 v -2 h -2 v 2 z m -2,-2 v -2 h -2 v 2 z m -2,-2 v -2 h -2 v 2 z m -2,-2 v -2 h -2 v 2 z m -2,-2 v -2 h -2 v 2 z m -2,-2 v -2 h -2 v 2 z" /><path
       id="rect1-2"
       style="stroke-width:1.25791"
       d="m 92,66 v 2 h 2 v -2 z m 0,2 h -2 v 2 h 2 z m -2,2 h -2 v 2 h 2 z m -2,2 h -2 v 2 h 2 z m -2,2 h -2 v 2 h 2 z m -2,2 h -2 v 2 h 2 z m -2,2 h -2 v 2 h 2 z m -2,2 h -2 v 2 h 2 z m -2,2 h -2 v 2 h 2 z m -2,2 h -2 v 2 h 2 z m -2,2 h -2 v 2 h 2 z m -2,2 h -2 v 2 h 2 z m -2,2 h -2 v 2 h 2 z m -2,2 h -2 v 2 h 2 z m -2,2 h -2 v 2 h 2 z" /><path
       id="rect1-2-7"
       style="stroke-width:1.25791"
       d="m 64,94 h -2 v 2 h 2 z m -2,0 v -2 h -2 v 2 z m -2,-2 v -2 h -2 v 2 z m -2,-2 v -2 h -2 v 2 z m -2,-2 v -2 h -2 v 2 z m -2,-2 v -2 h -2 v 2 z m -2,-2 v -2 h -2 v 2 z m -2,-2 v -2 h -2 v 2 z m -2,-2 v -2 h -2 v 2 z m -2,-2 v -2 h -2 v 2 z m -2,-2 v -2 h -2 v 2 z m -2,-2 v -2 h -2 v 2 z m -2,-2 v -2 h -2 v 2 z m -2,-2 v -2 h -2 v 2 z m -2,-2 v -2 h -2 v 2 z" /><rect
       style="fill:#000000;stroke-width:1.23505;-inkscape-stroke:none"
       id="rect15"
       width="12"
       height="2"
       x="66"
       y="58" /><rect
       style="fill:#000000;stroke-width:1.25791;-inkscape-stroke:none"
       id="rect16"
       width="4"
       height="2"
       x="78"
       y="60" /><rect
       style="fill:#000000;stroke-width:1.25791;-inkscape-stroke:none"
       id="rect17"
       width="2"
       height="2"
       x="64"
       y="60" /><rect
       style="fill:#000000;stroke-width:1.25791;-inkscape-stroke:none"
       id="rect18"
       width="2"
       height="2"
       x="62"
       y="60" /><rect
       style="fill:#000000;stroke-width:1.25791;-inkscape-stroke:none"
       id="rect19"
       width="2"
       height="2"
       x="60"
       y="62" /><rect
       style="fill:#000000;stroke-width:1.25791;-inkscape-stroke:none"
       id="rect20"
       width="2"
       height="4"
       x="58"
       y="64" /><rect
       style="fill:#000000;stroke-width:1.25791;-inkscape-stroke:none"
       id="rect21"
       width="2"
       height="14"
       x="56"
       y="68" /><rect
       style="fill:#000000;stroke-width:1.25791;-inkscape-stroke:none"
       id="rect22"
       width="2"
       height="4"
       x="58"
       y="82" /><rect
       style="fill:#000000;stroke-width:1.25791;-inkscape-stroke:none"
       id="rect23"
       width="2"
       height="2"
       x="82"
       y="62" /><rect
       style="fill:#000000;stroke-width:1.25791;-inkscape-stroke:none"
       id="rect24"
       width="2"
       height="4"
       x="84"
       y="64" /><rect
       style="fill:#000000;stroke-width:1.25791;-inkscape-stroke:none"
       id="rect25"
       width="2"
       height="14"
       x="86"
       y="68" /><rect
       style="fill:#000000;stroke-width:1.25791;-inkscape-stroke:none"
       id="rect26"
       width="2"
       height="4"
       x="84"
       y="82" /><rect
       style="fill:#000000;stroke-width:1.25791;-inkscape-stroke:none"
       id="rect27"
       width="2"
       height="2"
       x="82"
       y="86" /><rect
       style="fill:#000000;stroke-width:1.25791;-inkscape-stroke:none"
       id="rect28"
       width="4"
       height="2"
       x="78"
       y="88" /><rect
       style="fill:#000000;stroke-width:1.25791;-inkscape-stroke:none"
       id="rect29"
       width="12"
       height="2"
       x="66"
       y="90" /><rect
       style="fill:#000000;stroke-width:1.25791;-inkscape-stroke:none"
       id="rect30"
       width="4"
       height="2"
       x="62"
       y="88" /><rect
       style="fill:#000000;stroke-width:1.25791;-inkscape-stroke:none"
       id="rect31"
       width="2"
       height="2"
       x="60"
       y="86" /><rect
       style="fill:#000000;stroke-width:1.77895;-inkscape-stroke:none"
       id="rect32"
       width="4"
       height="2"
       x="82"
       y="88" /><rect
       style="fill:#000000;stroke-width:1.25791;-inkscape-stroke:none"
       id="rect33"
       width="2"
       height="6"
       x="84"
       y="86" /><rect
       style="fill:#000000;stroke-width:1.25791;-inkscape-stroke:none"
       id="rect34"
       width="2"
       height="2"
       x="86"
       y="88" /><rect
       style="fill:#000000;stroke-width:1.25791;-inkscape-stroke:none"
       id="rect35"
       width="4"
       height="4"
       x="86"
       y="90" /><rect
       style="fill:#000000;stroke-width:1.25791;-inkscape-stroke:none"
       id="rect36"
       width="4"
       height="4"
       x="88"
       y="92" /><rect
       style="fill:#000000;stroke-width:1.25791;-inkscape-stroke:none"
       id="rect37"
       width="4"
       height="4"
       x="90"
       y="94" /><rect
       style="fill:#000000;stroke-width:1.25791;-inkscape-stroke:none"
       id="rect38"
       width="4"
       height="4"
       x="92"
       y="96" /><path
       id="rect39"
       style="fill:#ffffff;stroke-width:1.25791"
       d="M 66 60 L 66 62 L 62 62 L 62 64 L 60 64 L 60 68 L 58 68 L 58 82 L 60 82 L 60 86 L 62 86 L 62 88 L 66 88 L 66 90 L 78 90 L 78 88 L 82 88 L 82 86 L 84 86 L 84 82 L 86 82 L 86 68 L 84 68 L 84 64 L 82 64 L 82 62 L 78 62 L 78 60 L 66 60 z " /><rect
       style="fill:#ffffff;stroke-width:1.25791;-inkscape-stroke:none"
       id="rect45"
       width="20"
       height="4"
       x="36"
       y="64" /><rect
       style="fill:#ffffff;stroke-width:1.25791;-inkscape-stroke:none"
       id="rect46"
       width="18"
       height="8"
       x="38"
       y="62" /><rect
       style="fill:#ffffff;stroke-width:1.25791;-inkscape-stroke:none"
       id="rect47"
       width="16"
       height="12"
       x="40"
       y="60" /><rect
       style="fill:#ffffff;stroke-width:1.25791;-inkscape-stroke:none"
       id="rect48"
       width="14"
       height="16"
       x="42"
       y="58" /><rect
       style="fill:#ffffff;stroke-width:1.25791;-inkscape-stroke:none"
       id="rect49"
       width="12"
       height="20"
       x="44"
       y="56" /><rect
       style="fill:#ffffff;stroke-width:1.25791;-inkscape-stroke:none"
       id="rect50"
       width="10"
       height="2"
       x="46"
       y="76" /><rect
       style="fill:#ffffff;stroke-width:1.25791;-inkscape-stroke:none"
       id="rect51"
       width="8"
       height="2"
       x="48"
       y="78" /><rect
       style="fill:#ffffff;stroke-width:1.25791;-inkscape-stroke:none"
       id="rect52"
       width="6"
       height="2"
       x="50"
       y="80" /><rect
       style="fill:#ffffff;stroke-width:1.25791;-inkscape-stroke:none"
       id="rect53"
       width="6"
       height="2"
       x="52"
       y="82" /><rect
       style="fill:#ffffff;stroke-width:1.25791;-inkscape-stroke:none"
       id="rect54"
       width="4"
       height="2"
       x="54"
       y="84" /><rect
       style="fill:#ffffff;stroke-width:1.25791;-inkscape-stroke:none"
       id="rect55"
       width="4"
       height="2"
       x="56"
       y="86" /><rect
       style="fill:#ffffff;stroke-width:1.25791;-inkscape-stroke:none"
       id="rect56"
       width="4"
       height="4"
       x="62"
       y="90" /><rect
       style="fill:#ffffff;stroke-width:1.25791;-inkscape-stroke:none"
       id="rect57"
       width="2"
       height="4"
       x="60"
       y="88" /><rect
       style="fill:#ffffff;stroke-width:1.25791;-inkscape-stroke:none"
       id="rect58"
       width="2"
       height="4"
       x="58"
       y="86" /><rect
       style="fill:#ffffff;stroke-width:1.25791;-inkscape-stroke:none"
       id="rect59"
       width="4"
       height="2"
       x="56"
       y="86" /><rect
       style="fill:#ffffff;stroke-width:1.25791;-inkscape-stroke:none"
       id="rect60"
       width="4"
       height="20"
       x="62"
       y="38" /><rect
       style="fill:#ffffff;stroke-width:1.25791;-inkscape-stroke:none"
       id="rect61"
       width="8"
       height="18"
       x="60"
       y="40" /><rect
       style="fill:#ffffff;stroke-width:1.25791;-inkscape-stroke:none"
       id="rect62"
       width="12"
       height="16"
       x="58"
       y="42" /><rect
       style="fill:#ffffff;stroke-width:1.25791;-inkscape-stroke:none"
       id="rect63"
       width="16"
       height="14"
       x="56"
       y="44" /><rect
       style="fill:#ffffff;stroke-width:1.25791;-inkscape-stroke:none"
       id="rect64"
       width="20"
       height="12"
       x="54"
       y="46" /><rect
       style="fill:#ffffff;stroke-width:1.25791;-inkscape-stroke:none"
       id="rect65"
       width="24"
       height="10"
       x="52"
       y="48" /><rect
       style="fill:#ffffff;stroke-width:1.25791;-inkscape-stroke:none"
       id="rect66"
       width="2"
       height="8"
       x="76"
       y="50" /><rect
       style="fill:#ffffff;stroke-width:1.25791;-inkscape-stroke:none"
       id="rect67"
       width="2"
       height="8"
       x="78"
       y="52" /><rect
       style="fill:#ffffff;stroke-width:1.25791;-inkscape-stroke:none"
       id="rect68"
       width="2"
       height="6"
       x="80"
       y="54" /><rect
       style="fill:#ffffff;stroke-width:1.25791;-inkscape-stroke:none"
       id="rect69"
       width="2"
       height="6"
       x="82"
       y="56" /><rect
       style="fill:#ffffff;stroke-width:1.25791;-inkscape-stroke:none"
       id="rect70"
       width="2"
       height="6"
       x="84"
       y="58" /><rect
       style="fill:#ffffff;stroke-width:1.25791;-inkscape-stroke:none"
       id="rect71"
       width="2"
       height="8"
       x="86"
       y="60" /><rect
       style="fill:#ffffff;stroke-width:1.25791;-inkscape-stroke:none"
       id="rect72"
       width="2"
       height="8"
       x="88"
       y="62" /><rect
       style="fill:#ffffff;stroke-width:1.25791;-inkscape-stroke:none"
       id="rect73"
       width="2"
       height="4"
       x="90"
       y="64" /><rect
       style="fill:#ffffff;stroke-width:1.25791;-inkscape-stroke:none"
       id="rect74"
       width="6"
       height="2"
       x="46"
       y="54" /><rect
       style="fill:#ffffff;stroke-width:1.25791;-inkscape-stroke:none"
       id="rect75"
       width="4"
       height="2"
       x="48"
       y="52" /><rect
       style="fill:#ffffff;stroke-width:1.25791;-inkscape-stroke:none"
       id="rect76"
       width="2"
       height="2"
       x="50"
       y="50" /><rect
       style="fill:#ffffff;stroke-width:1.25791;-inkscape-stroke:none"
       id="rect80"
       width="10"
       height="2"
       x="56"
       y="58" /><rect
       style="fill:#ffffff;stroke-width:1.25791;-inkscape-stroke:none"
       id="rect81"
       width="6"
       height="2"
       x="56"
       y="60" /><rect
       style="fill:#ffffff;stroke-width:1.25791;-inkscape-stroke:none"
       id="rect82"
       width="2"
       height="6"
       x="56"
       y="62" /><rect
       style="fill:#ffffff;stroke-width:1.25791;-inkscape-stroke:none"
       id="rect83"
       width="2"
       height="4"
       x="58"
       y="60" /><rect
       style="fill:#000000;stroke-width:1.25791;-inkscape-stroke:none"
       id="rect84"
       width="6"
       height="6"
       x="69"
       y="72" /><rect
       style="fill:#000000;stroke-width:1.48838;-inkscape-stroke:none"
       id="rect85"
       width="7"
       height="12"
       x="62"
       y="60" /><rect
       style="fill:#000000;stroke-width:1.25791;-inkscape-stroke:none"
       id="rect86"
       width="2"
       height="4"
       x="66"
       y="54" /><rect
       style="fill:#000000;stroke-width:1.25791;-inkscape-stroke:none"
       id="rect87"
       width="2"
       height="18"
       x="52"
       y="54" /><rect
       style="fill:#000000;stroke-width:1.25791;-inkscape-stroke:none"
       id="rect88"
       width="2"
       height="2"
       x="50"
       y="72" /><rect
       style="fill:#000000;stroke-width:1.25791;-inkscape-stroke:none"
       id="rect89"
       width="12"
       height="2"
       x="54"
       y="52" /><rect
       style="fill:#000000;stroke-width:1.25791;-inkscape-stroke:none"
       id="rect90"
       width="8"
       height="2"
       x="54"
       y="60" /><rect
       style="fill:#000000;stroke-width:1.25791;-inkscape-stroke:none"
       id="rect91"
       width="6"
       height="6"
       x="82"
       y="86" /><rect
       style="fill:#000000;stroke-width:1.25791;-inkscape-stroke:none"
       id="rect92"
       width="5"
       height="5"
       x="85"
       y="89" /><rect
       style="fill:#000000;stroke-width:1.25791;-inkscape-stroke:none"
       id="rect93"
       width="6"
       height="6"
       x="88"
       y="92" /><rect
       style="fill:#000000;stroke-width:1.25791;-inkscape-stroke:none"
       id="rect94"
       width="6"
       height="6"
       x="84"
       y="88" /><rect
       style="fill:#000000;stroke-width:1.25791;-inkscape-stroke:none"
       id="rect95"
       width="6"
       height="6"
       x="86"
       y="90" /><rect
       style="fill:#000000;stroke-width:1.25791;-inkscape-stroke:none"
       id="rect96"
       width="6"
       height="6"
       x="90"
       y="94" /><rect
       style="fill:#000000;stroke-width:1.25791;-inkscape-stroke:none"
       id="rect96-6"
       width="6"
       height="6"
       x="92"
       y="96" /><rect
       style="fill:#000000;stroke-width:1.25791;-inkscape-stroke:none"
       id="rect96-9"
       width="6"
       height="6"
       x="94"
       y="98" /></g></svg>
