<svg xmlns="http://www.w3.org/2000/svg" viewBox="0 0 128 128">
  <!-- Background layer for white outlines -->
  <!-- Left parenthesis white outline -->
  <rect x="29" y="33" width="6" height="6" fill="#FFFFFF"/>
  <rect x="25" y="37" width="6" height="6" fill="#FFFFFF"/>
  <rect x="21" y="41" width="6" height="6" fill="#FFFFFF"/>
  <rect x="17" y="45" width="6" height="6" fill="#FFFFFF"/>
  <rect x="17" y="49" width="6" height="6" fill="#FFFFFF"/>
  <rect x="17" y="53" width="6" height="6" fill="#FFFFFF"/>
  <rect x="17" y="57" width="6" height="6" fill="#FFFFFF"/>
  <rect x="17" y="61" width="6" height="6" fill="#FFFFFF"/>
  <rect x="17" y="65" width="6" height="6" fill="#FFFFFF"/>
  <rect x="17" y="69" width="6" height="6" fill="#FFFFFF"/>
  <rect x="17" y="73" width="6" height="6" fill="#FFFFFF"/>
  <rect x="21" y="77" width="6" height="6" fill="#FFFFFF"/>
  <rect x="25" y="81" width="6" height="6" fill="#FFFFFF"/>
  <rect x="29" y="85" width="6" height="6" fill="#FFFFFF"/>
  
  <!-- Right parenthesis white outline -->
  <rect x="93" y="33" width="6" height="6" fill="#FFFFFF"/>
  <rect x="97" y="37" width="6" height="6" fill="#FFFFFF"/>
  <rect x="101" y="41" width="6" height="6" fill="#FFFFFF"/>
  <rect x="105" y="45" width="6" height="6" fill="#FFFFFF"/>
  <rect x="105" y="49" width="6" height="6" fill="#FFFFFF"/>
  <rect x="105" y="53" width="6" height="6" fill="#FFFFFF"/>
  <rect x="105" y="57" width="6" height="6" fill="#FFFFFF"/>
  <rect x="105" y="61" width="6" height="6" fill="#FFFFFF"/>
  <rect x="105" y="65" width="6" height="6" fill="#FFFFFF"/>
  <rect x="105" y="69" width="6" height="6" fill="#FFFFFF"/>
  <rect x="105" y="73" width="6" height="6" fill="#FFFFFF"/>
  <rect x="101" y="77" width="6" height="6" fill="#FFFFFF"/>
  <rect x="97" y="81" width="6" height="6" fill="#FFFFFF"/>
  <rect x="93" y="85" width="6" height="6" fill="#FFFFFF"/>
  
  <!-- Central LISP-inspired logo - white outlines -->
  <!-- Lambda symbol with procedural graphics elements -->
  <!-- Left side of lambda -->
  <rect x="49" y="37" width="6" height="6" fill="#FFFFFF"/>
  <rect x="53" y="41" width="6" height="6" fill="#FFFFFF"/>
  <rect x="57" y="45" width="6" height="6" fill="#FFFFFF"/>
  <rect x="61" y="49" width="6" height="6" fill="#FFFFFF"/>
  <rect x="65" y="53" width="6" height="6" fill="#FFFFFF"/>
  <rect x="69" y="57" width="6" height="6" fill="#FFFFFF"/>
  <rect x="73" y="61" width="6" height="6" fill="#FFFFFF"/>
  <rect x="77" y="65" width="6" height="6" fill="#FFFFFF"/>
  <rect x="81" y="69" width="6" height="6" fill="#FFFFFF"/>
  
  <!-- Right side of lambda -->
  <rect x="73" y="37" width="6" height="6" fill="#FFFFFF"/>
  <rect x="69" y="41" width="6" height="6" fill="#FFFFFF"/>
  <rect x="65" y="45" width="6" height="6" fill="#FFFFFF"/>
  <rect x="61" y="49" width="6" height="6" fill="#FFFFFF"/>
  
  <!-- Procedural graphics grid elements -->
  <rect x="33" y="73" width="6" height="6" fill="#FFFFFF"/>
  <rect x="37" y="73" width="6" height="6" fill="#FFFFFF"/>
  <rect x="41" y="73" width="6" height="6" fill="#FFFFFF"/>
  <rect x="45" y="73" width="6" height="6" fill="#FFFFFF"/>
  <rect x="49" y="73" width="6" height="6" fill="#FFFFFF"/>
  <rect x="53" y="73" width="6" height="6" fill="#FFFFFF"/>
  <rect x="57" y="73" width="6" height="6" fill="#FFFFFF"/>
  <rect x="61" y="73" width="6" height="6" fill="#FFFFFF"/>
  <rect x="65" y="73" width="6" height="6" fill="#FFFFFF"/>
  <rect x="69" y="73" width="6" height="6" fill="#FFFFFF"/>
  <rect x="73" y="73" width="6" height="6" fill="#FFFFFF"/>
  <rect x="77" y="73" width="6" height="6" fill="#FFFFFF"/>
  <rect x="81" y="73" width="6" height="6" fill="#FFFFFF"/>
  <rect x="85" y="73" width="6" height="6" fill="#FFFFFF"/>
  <rect x="89" y="73" width="6" height="6" fill="#FFFFFF"/>
  
  <rect x="33" y="81" width="6" height="6" fill="#FFFFFF"/>
  <rect x="41" y="81" width="6" height="6" fill="#FFFFFF"/>
  <rect x="49" y="81" width="6" height="6" fill="#FFFFFF"/>
  <rect x="57" y="81" width="6" height="6" fill="#FFFFFF"/>
  <rect x="65" y="81" width="6" height="6" fill="#FFFFFF"/>
  <rect x="73" y="81" width="6" height="6" fill="#FFFFFF"/>
  <rect x="81" y="81" width="6" height="6" fill="#FFFFFF"/>
  <rect x="89" y="81" width="6" height="6" fill="#FFFFFF"/>
  
  <!-- Connection lines -->
  <rect x="57" y="65" width="6" height="6" fill="#FFFFFF"/>
  <rect x="49" y="65" width="6" height="6" fill="#FFFFFF"/>
  <rect x="41" y="65" width="6" height="6" fill="#FFFFFF"/>
  <rect x="41" y="57" width="6" height="6" fill="#FFFFFF"/>
  <rect x="41" y="49" width="6" height="6" fill="#FFFFFF"/>
  <rect x="41" y="41" width="6" height="6" fill="#FFFFFF"/>
  
  <!-- Main icon black elements on top of white outlines -->
  <!-- Left parenthesis structure -->
  <rect x="30" y="34" width="4" height="4" fill="#000000"/>
  <rect x="26" y="38" width="4" height="4" fill="#000000"/>
  <rect x="22" y="42" width="4" height="4" fill="#000000"/>
  <rect x="18" y="46" width="4" height="4" fill="#000000"/>
  <rect x="18" y="50" width="4" height="4" fill="#000000"/>
  <rect x="18" y="54" width="4" height="4" fill="#000000"/>
  <rect x="18" y="58" width="4" height="4" fill="#000000"/>
  <rect x="18" y="62" width="4" height="4" fill="#000000"/>
  <rect x="18" y="66" width="4" height="4" fill="#000000"/>
  <rect x="18" y="70" width="4" height="4" fill="#000000"/>
  <rect x="18" y="74" width="4" height="4" fill="#000000"/>
  <rect x="22" y="78" width="4" height="4" fill="#000000"/>
  <rect x="26" y="82" width="4" height="4" fill="#000000"/>
  <rect x="30" y="86" width="4" height="4" fill="#000000"/>
  
  <!-- Right parenthesis structure -->
  <rect x="94" y="34" width="4" height="4" fill="#000000"/>
  <rect x="98" y="38" width="4" height="4" fill="#000000"/>
  <rect x="102" y="42" width="4" height="4" fill="#000000"/>
  <rect x="106" y="46" width="4" height="4" fill="#000000"/>
  <rect x="106" y="50" width="4" height="4" fill="#000000"/>
  <rect x="106" y="54" width="4" height="4" fill="#000000"/>
  <rect x="106" y="58" width="4" height="4" fill="#000000"/>
  <rect x="106" y="62" width="4" height="4" fill="#000000"/>
  <rect x="106" y="66" width="4" height="4" fill="#000000"/>
  <rect x="106" y="70" width="4" height="4" fill="#000000"/>
  <rect x="106" y="74" width="4" height="4" fill="#000000"/>
  <rect x="102" y="78" width="4" height="4" fill="#000000"/>
  <rect x="98" y="82" width="4" height="4" fill="#000000"/>
  <rect x="94" y="86" width="4" height="4" fill="#000000"/>
  
  <!-- Central LISP-inspired logo - black elements -->
  <!-- Lambda symbol with procedural graphics elements -->
  <!-- Left side of lambda -->
  <rect x="50" y="38" width="4" height="4" fill="#000000"/>
  <rect x="54" y="42" width="4" height="4" fill="#000000"/>
  <rect x="58" y="46" width="4" height="4" fill="#000000"/>
  <rect x="62" y="50" width="4" height="4" fill="#000000"/>
  <rect x="66" y="54" width="4" height="4" fill="#000000"/>
  <rect x="70" y="58" width="4" height="4" fill="#000000"/>
  <rect x="74" y="62" width="4" height="4" fill="#000000"/>
  <rect x="78" y="66" width="4" height="4" fill="#000000"/>
  <rect x="82" y="70" width="4" height="4" fill="#000000"/>
  
  <!-- Right side of lambda -->
  <rect x="74" y="38" width="4" height="4" fill="#000000"/>
  <rect x="70" y="42" width="4" height="4" fill="#000000"/>
  <rect x="66" y="46" width="4" height="4" fill="#000000"/>
  <rect x="62" y="50" width="4" height="4" fill="#000000"/>
  
  <!-- Procedural graphics grid elements -->
  <rect x="34" y="74" width="4" height="4" fill="#000000"/>
  <rect x="38" y="74" width="4" height="4" fill="#000000"/>
  <rect x="42" y="74" width="4" height="4" fill="#000000"/>
  <rect x="46" y="74" width="4" height="4" fill="#000000"/>
  <rect x="50" y="74" width="4" height="4" fill="#000000"/>
  <rect x="54" y="74" width="4" height="4" fill="#000000"/>
  <rect x="58" y="74" width="4" height="4" fill="#000000"/>
  <rect x="62" y="74" width="4" height="4" fill="#000000"/>
  <rect x="66" y="74" width="4" height="4" fill="#000000"/>
  <rect x="70" y="74" width="4" height="4" fill="#000000"/>
  <rect x="74" y="74" width="4" height="4" fill="#000000"/>
  <rect x="78" y="74" width="4" height="4" fill="#000000"/>
  <rect x="82" y="74" width="4" height="4" fill="#000000"/>
  <rect x="86" y="74" width="4" height="4" fill="#000000"/>
  <rect x="90" y="74" width="4" height="4" fill="#000000"/>
  
  <rect x="34" y="82" width="4" height="4" fill="#000000"/>
  <rect x="42" y="82" width="4" height="4" fill="#000000"/>
  <rect x="50" y="82" width="4" height="4" fill="#000000"/>
  <rect x="58" y="82" width="4" height="4" fill="#000000"/>
  <rect x="66" y="82" width="4" height="4" fill="#000000"/>
  <rect x="74" y="82" width="4" height="4" fill="#000000"/>
  <rect x="82" y="82" width="4" height="4" fill="#000000"/>
  <rect x="90" y="82" width="4" height="4" fill="#000000"/>
  
  <!-- Connection lines -->
  <rect x="58" y="66" width="4" height="4" fill="#000000"/>
  <rect x="50" y="66" width="4" height="4" fill="#000000"/>
  <rect x="42" y="66" width="4" height="4" fill="#000000"/>
  <rect x="42" y="58" width="4" height="4" fill="#000000"/>
  <rect x="42" y="50" width="4" height="4" fill="#000000"/>
  <rect x="42" y="42" width="4" height="4" fill="#000000"/>
</svg>
