<?xml version="1.0" encoding="UTF-8" standalone="no"?>
<!-- Created with Inkscape (http://www.inkscape.org/) -->

<svg
   width="128"
   height="128"
   viewBox="0 0 128 128"
   version="1.1"
   id="svg1"
   xml:space="preserve"
   inkscape:version="1.4 (e7c3feb100, 2024-10-09)"
   sodipodi:docname="app.svg"
   xmlns:inkscape="http://www.inkscape.org/namespaces/inkscape"
   xmlns:sodipodi="http://sodipodi.sourceforge.net/DTD/sodipodi-0.dtd"
   xmlns="http://www.w3.org/2000/svg"
   xmlns:svg="http://www.w3.org/2000/svg"><sodipodi:namedview
     id="namedview1"
     pagecolor="#ffffff"
     bordercolor="#111111"
     borderopacity="1"
     inkscape:showpageshadow="0"
     inkscape:pageopacity="0"
     inkscape:pagecheckerboard="1"
     inkscape:deskcolor="#d1d1d1"
     inkscape:document-units="mm"
     inkscape:zoom="5.6568542"
     inkscape:cx="65.230601"
     inkscape:cy="60.192465"
     inkscape:window-width="2557"
     inkscape:window-height="1010"
     inkscape:window-x="0"
     inkscape:window-y="0"
     inkscape:window-maximized="1"
     inkscape:current-layer="layer1"
     showgrid="false"><inkscape:grid
       id="grid1"
       units="px"
       originx="0"
       originy="0"
       spacingx="1"
       spacingy="1"
       empcolor="#0099e5"
       empopacity="0.30196078"
       color="#0099e5"
       opacity="0.14901961"
       empspacing="1"
       enabled="true"
       visible="false"
       dotted="false" /></sodipodi:namedview><defs
     id="defs1" /><g
     inkscape:label="Layer 1"
     inkscape:groupmode="layer"
     id="layer1"><path
       id="rect1"
       style="fill:#ffffff;stroke-width:7.96247;stroke-linecap:round;stroke-opacity:0.142198"
       d="m 14,19 h 103 v 92 H 14 Z"
       sodipodi:nodetypes="ccccc" /><path
       id="path22"
       style="fill:#000000;stroke-width:3.39567"
       d="M 15,50 15.09544,50.802642 15,51.989123 73.380259,51.950273 116.43546,52 116.38584,50.802641 117.80002,50 H 73.380259 Z"
       sodipodi:nodetypes="ccccccccc" /><path
       id="path21-5"
       style="fill:#000000;stroke-width:3.1324"
       d="m 97.03961,30 c -0.0409,26.666669 -0.0409,53.333335 -0.0409,80 h 2 v -2.13333 -77.866668 c -1,8.3e-5 -1,0 -1.95913,-2e-6 z"
       sodipodi:nodetypes="cccccc" /><path
       id="path21-5-5"
       style="fill:#000000;stroke-width:3.1324"
       d="m 77.850639,30 c -0.04087,26.666669 -0.04087,53.333335 -0.04087,80 h 2 v -2.13333 -77.866668 c -0.999999,8.3e-5 -1,0 -1.959125,-2e-6 z"
       sodipodi:nodetypes="cccccc" /><path
       id="path21-5-5-2"
       style="fill:#000000;stroke-width:3.1324"
       d="M 54.04087,30 C 54,56.666669 54,83.333334 54,110 h 2 v -2.13333 -77.866669 c -0.999999,8.3e-5 -1,0 -1.959125,-1e-6 z"
       sodipodi:nodetypes="cccccc" /><path
       id="path20"
       style="fill:#000000;stroke-width:3.7376"
       d="m 15,70 v 1 1 H 75.516604 115.97553 V 71 70 H 75.516604 Z"
       sodipodi:nodetypes="ccccccccc" /><path
       id="path18"
       style="fill:#000000;stroke-width:3.01498"
       d="M 55,90.0387 V 91.039186 92.0387 L 91.332244,92.02802 118,92 v -1 -1 l -26.239523,0.0387 z"
       sodipodi:nodetypes="ccccccccc" /><path
       id="path17"
       style="fill:#000000;stroke-width:2.24967"
       d="M 33,30 V 50.000001 70 h 1 1 V 50.000001 30 h -1 z" /><path
       id="path15"
       style="fill:#000000;stroke-width:1.0684"
       d="m 13,18 v 94 H 118 V 18 Z m 2,16 c 33.853265,0.0082 67.146738,0.0018 101,0 v 76 H 15 c 0.07074,-31.376853 0.0045,-36.637927 0,-61 -6.47e-4,-3.581989 0.0034,-10.386606 0,-15 z"
       sodipodi:nodetypes="cccccccccsc" /><rect
       style="fill:#000000;stroke-width:11.0851;stroke-linecap:round;stroke-opacity:0.142198"
       id="rect2"
       width="24"
       height="2"
       x="15"
       y="86" /><rect
       style="fill:#000000;stroke-width:3.2;stroke-linecap:round;stroke-opacity:0.142198"
       id="rect2-2"
       width="2"
       height="2"
       x="15"
       y="88" /><rect
       style="fill:#000000;stroke-width:3.2;stroke-linecap:round;stroke-opacity:0.142198"
       id="rect2-7"
       width="2"
       height="2"
       x="17"
       y="90" /><rect
       style="fill:#000000;stroke-width:3.2;stroke-linecap:round;stroke-opacity:0.142198"
       id="rect2-6"
       width="2"
       height="2"
       x="19"
       y="92" /><rect
       style="fill:#000000;stroke-width:3.2;stroke-linecap:round;stroke-opacity:0.142198"
       id="rect2-61"
       width="2"
       height="2"
       x="21"
       y="94" /><rect
       style="fill:#000000;stroke-width:3.2;stroke-linecap:round;stroke-opacity:0.142198"
       id="rect2-20"
       width="2"
       height="2"
       x="23"
       y="96" /><rect
       style="fill:#000000;stroke-width:3.2;stroke-linecap:round;stroke-opacity:0.142198"
       id="rect2-5"
       width="2"
       height="2"
       x="25"
       y="98" /><rect
       style="fill:#000000;stroke-width:3.2;stroke-linecap:round;stroke-opacity:0.142198"
       id="rect2-8"
       width="2"
       height="2"
       x="27"
       y="100" /><rect
       style="fill:#000000;stroke-width:3.2;stroke-linecap:round;stroke-opacity:0.142198"
       id="rect2-612"
       width="2"
       height="2"
       x="29"
       y="102" /><rect
       style="fill:#000000;stroke-width:3.2;stroke-linecap:round;stroke-opacity:0.142198"
       id="rect2-5-4"
       width="2"
       height="2"
       x="31"
       y="104" /><rect
       style="fill:#000000;stroke-width:3.2;stroke-linecap:round;stroke-opacity:0.142198"
       id="rect2-8-5"
       width="2"
       height="2"
       x="33"
       y="106" /><rect
       style="fill:#000000;stroke-width:3.2;stroke-linecap:round;stroke-opacity:0.142198"
       id="rect2-612-0"
       width="2"
       height="2"
       x="35"
       y="108" /><rect
       style="fill:#000000;stroke-width:10.6131;stroke-linecap:round;stroke-opacity:0.142198"
       id="rect2-612-9"
       width="2"
       height="22"
       x="37"
       y="88" /></g></svg>
