<?xml version="1.0" encoding="UTF-8" standalone="no"?>
<svg
   viewBox="0 0 128 128"
   version="1.1"
   id="svg136"
   sodipodi:docname="com.example.ditto.svg"
   inkscape:version="1.4 (e7c3feb100, 2024-10-09)"
   xmlns:inkscape="http://www.inkscape.org/namespaces/inkscape"
   xmlns:sodipodi="http://sodipodi.sourceforge.net/DTD/sodipodi-0.dtd"
   xmlns="http://www.w3.org/2000/svg"
   xmlns:svg="http://www.w3.org/2000/svg">
  <defs
     id="defs136" />
  <sodipodi:namedview
     id="namedview136"
     pagecolor="#ffffff"
     bordercolor="#111111"
     borderopacity="1"
     inkscape:showpageshadow="0"
     inkscape:pageopacity="0"
     inkscape:pagecheckerboard="1"
     inkscape:deskcolor="#d1d1d1"
     inkscape:zoom="6.421875"
     inkscape:cx="63.844282"
     inkscape:cy="61.430657"
     inkscape:window-width="2557"
     inkscape:window-height="1017"
     inkscape:window-x="0"
     inkscape:window-y="0"
     inkscape:window-maximized="1"
     inkscape:current-layer="svg136"
     showgrid="true">
    <inkscape:grid
       id="grid1"
       units="px"
       originx="0"
       originy="0"
       spacingx="1"
       spacingy="1"
       empcolor="#0099e5"
       empopacity="0.30196078"
       color="#0099e5"
       opacity="0.14901961"
       empspacing="1"
       enabled="true"
       visible="true" />
  </sodipodi:namedview>
  <rect
     x="22"
     y="8"
     width="84"
     height="114"
     fill="#ffffff"
     id="rect47-7"
     style="fill:#000000;stroke-width:1.03566" />
  <!-- 124x124 background with 2px border from edge -->
  <!-- Using a 4x4 pixel grid (31x31 cells total in the 124x124 area) -->
  <!-- Sky area (black with white horizontal lines) -->
  <!-- Row 1 -->
  <!-- Row 2 -->
  <!-- Row 3 -->
  <!-- Row 4 -->
  <!-- Row 5 -->
  <!-- Row 6 -->
  <!-- Row 7 -->
  <!-- Row 8 -->
  <!-- Row 9 -->
  <!-- Row 10 -->
  <!-- Row 11 -->
  <!-- Row 12 -->
  <!-- Row 13 -->
  <!-- Sun/Moon (Circle made of 4x4 rectangles) -->
  <!-- Landscape silhouette (mountains) -->
  <!-- Background is white below row 13 -->
  <rect
     x="24"
     y="10"
     width="80"
     height="108"
     fill="#ffffff"
     id="rect47"
     style="stroke-width:0.983738" />
  <!-- Mountain peaks and valleys (built with 4x4 blocks) -->
  <rect
     x="42"
     y="16"
     width="4"
     height="4"
     fill="#000000"
     id="rect53" />
  <rect
     x="34"
     y="16"
     width="4"
     height="4"
     fill="#000000"
     id="rect59" />
  <!-- Black shapes in white landscape -->
  <!-- Shape 1 -->
  <rect
     x="34"
     y="20"
     width="4"
     height="4"
     fill="#000000"
     id="rect79" />
  <rect
     x="38"
     y="20"
     width="4"
     height="4"
     fill="#000000"
     id="rect80" />
  <rect
     x="42"
     y="20"
     width="4"
     height="4"
     fill="#000000"
     id="rect81" />
  <rect
     x="34"
     y="24"
     width="4"
     height="4"
     fill="#000000"
     id="rect82" />
  <rect
     x="34"
     y="48"
     width="4"
     height="4"
     fill="#000000"
     id="rect82-3" />
  <rect
     x="34"
     y="44"
     width="4"
     height="4"
     fill="#000000"
     id="rect82-6" />
  <rect
     x="34"
     y="40"
     width="4"
     height="4"
     fill="#000000"
     id="rect82-7" />
  <rect
     x="38"
     y="36"
     width="4"
     height="4"
     fill="#000000"
     id="rect82-5" />
  <rect
     x="42"
     y="40"
     width="4"
     height="4"
     fill="#000000"
     id="rect82-35" />
  <rect
     x="42"
     y="44"
     width="4"
     height="4"
     fill="#000000"
     id="rect82-62" />
  <rect
     x="42"
     y="48"
     width="4"
     height="4"
     fill="#000000"
     id="rect82-9" />
  <rect
     x="46"
     y="20"
     width="4"
     height="4"
     fill="#000000"
     id="rect82-1" />
  <rect
     x="46"
     y="16"
     width="4"
     height="4"
     fill="#000000"
     id="rect82-2" />
  <rect
     x="30"
     y="16"
     width="4"
     height="4"
     fill="#000000"
     id="rect82-70" />
  <rect
     x="30"
     y="20"
     width="4"
     height="4"
     fill="#000000"
     id="rect82-93" />
  <rect
     x="38"
     y="24"
     width="4"
     height="4"
     fill="#000000"
     id="rect83" />
  <rect
     x="42"
     y="24"
     width="4"
     height="4"
     fill="#000000"
     id="rect84" />
  <rect
     x="38"
     y="28"
     width="4"
     height="4"
     fill="#000000"
     id="rect85" />
  <rect
     x="66"
     y="60"
     width="4"
     height="4"
     fill="#000000"
     id="rect53-2" />
  <rect
     x="58"
     y="60"
     width="4"
     height="4"
     fill="#000000"
     id="rect59-0" />
  <rect
     x="58"
     y="64"
     width="4"
     height="4"
     fill="#000000"
     id="rect79-2" />
  <rect
     x="62"
     y="64"
     width="4"
     height="4"
     fill="#000000"
     id="rect80-3" />
  <rect
     x="66"
     y="64"
     width="4"
     height="4"
     fill="#000000"
     id="rect81-7" />
  <rect
     x="58"
     y="68"
     width="4"
     height="4"
     fill="#000000"
     id="rect82-59" />
  <rect
     x="70"
     y="64"
     width="4"
     height="4"
     fill="#000000"
     id="rect82-1-2" />
  <rect
     x="70"
     y="60"
     width="4"
     height="4"
     fill="#000000"
     id="rect82-2-2" />
  <rect
     x="54"
     y="60"
     width="4"
     height="4"
     fill="#000000"
     id="rect82-70-8" />
  <rect
     x="54"
     y="64"
     width="4"
     height="4"
     fill="#000000"
     id="rect82-93-9" />
  <rect
     x="62"
     y="68"
     width="4"
     height="4"
     fill="#000000"
     id="rect83-7" />
  <rect
     x="66"
     y="68"
     width="4"
     height="4"
     fill="#000000"
     id="rect84-3" />
  <rect
     x="62"
     y="72"
     width="4"
     height="4"
     fill="#000000"
     id="rect85-6" />
  <!-- Shape 2 -->
  <!-- Shape 3 -->
  <!-- Shape 4 -->
  <!-- Shape 5 -->
  <!-- Chicago-style "D" made of 4x4 pixel rects -->
  <rect
     x="38"
     y="44"
     width="4"
     height="4"
     fill="#000000"
     id="rect82-60" />
  <rect
     x="42"
     y="52"
     width="4"
     height="4"
     fill="#000000"
     id="rect82-626" />
  <rect
     x="34"
     y="52"
     width="4"
     height="4"
     fill="#000000"
     id="rect82-18" />
  <rect
     x="90"
     y="-112"
     width="4"
     height="4"
     fill="#000000"
     id="rect53-1"
     transform="scale(1,-1)" />
  <rect
     x="82"
     y="-112"
     width="4"
     height="4"
     fill="#000000"
     id="rect59-2"
     transform="scale(1,-1)" />
  <rect
     x="82"
     y="-108"
     width="4"
     height="4"
     fill="#000000"
     id="rect79-9"
     transform="scale(1,-1)" />
  <rect
     x="86"
     y="-108"
     width="4"
     height="4"
     fill="#000000"
     id="rect80-31"
     transform="scale(1,-1)" />
  <rect
     x="90"
     y="-108"
     width="4"
     height="4"
     fill="#000000"
     id="rect81-9"
     transform="scale(1,-1)" />
  <rect
     x="82"
     y="-104"
     width="4"
     height="4"
     fill="#000000"
     id="rect82-4"
     transform="scale(1,-1)" />
  <rect
     x="82"
     y="-80"
     width="4"
     height="4"
     fill="#000000"
     id="rect82-3-7"
     transform="scale(1,-1)" />
  <rect
     x="82"
     y="-84"
     width="4"
     height="4"
     fill="#000000"
     id="rect82-6-8"
     transform="scale(1,-1)" />
  <rect
     x="82"
     y="-88"
     width="4"
     height="4"
     fill="#000000"
     id="rect82-7-4"
     transform="scale(1,-1)" />
  <rect
     x="86"
     y="-92"
     width="4"
     height="4"
     fill="#000000"
     id="rect82-5-5"
     transform="scale(1,-1)" />
  <rect
     x="90"
     y="-88"
     width="4"
     height="4"
     fill="#000000"
     id="rect82-35-0"
     transform="scale(1,-1)" />
  <rect
     x="90"
     y="-84"
     width="4"
     height="4"
     fill="#000000"
     id="rect82-62-3"
     transform="scale(1,-1)" />
  <rect
     x="90"
     y="-80"
     width="4"
     height="4"
     fill="#000000"
     id="rect82-9-6"
     transform="scale(1,-1)" />
  <rect
     x="94"
     y="-108"
     width="4"
     height="4"
     fill="#000000"
     id="rect82-1-1"
     transform="scale(1,-1)" />
  <rect
     x="94"
     y="-112"
     width="4"
     height="4"
     fill="#000000"
     id="rect82-2-0"
     transform="scale(1,-1)" />
  <rect
     x="78"
     y="-112"
     width="4"
     height="4"
     fill="#000000"
     id="rect82-70-6"
     transform="scale(1,-1)" />
  <rect
     x="78"
     y="-108"
     width="4"
     height="4"
     fill="#000000"
     id="rect82-93-3"
     transform="scale(1,-1)" />
  <rect
     x="86"
     y="-104"
     width="4"
     height="4"
     fill="#000000"
     id="rect83-2"
     transform="scale(1,-1)" />
  <rect
     x="90"
     y="-104"
     width="4"
     height="4"
     fill="#000000"
     id="rect84-0"
     transform="scale(1,-1)" />
  <rect
     x="86"
     y="-100"
     width="4"
     height="4"
     fill="#000000"
     id="rect85-61"
     transform="scale(1,-1)" />
  <rect
     x="86"
     y="-84"
     width="4"
     height="4"
     fill="#000000"
     id="rect82-60-5"
     transform="scale(1,-1)" />
  <rect
     x="90"
     y="-76"
     width="4"
     height="4"
     fill="#000000"
     id="rect82-626-5"
     transform="scale(1,-1)" />
  <rect
     x="82"
     y="-76"
     width="4"
     height="4"
     fill="#000000"
     id="rect82-18-4"
     transform="scale(1,-1)" />
</svg>
