<?xml version="1.0" encoding="UTF-8" standalone="no"?>
<!-- Created with Inkscape (http://www.inkscape.org/) -->

<svg
   width="128"
   height="128"
   viewBox="0 0 128 128"
   version="1.1"
   id="svg1"
   xml:space="preserve"
   inkscape:version="1.4 (e7c3feb100, 2024-10-09)"
   sodipodi:docname="app.svg"
   xmlns:inkscape="http://www.inkscape.org/namespaces/inkscape"
   xmlns:sodipodi="http://sodipodi.sourceforge.net/DTD/sodipodi-0.dtd"
   xmlns="http://www.w3.org/2000/svg"
   xmlns:svg="http://www.w3.org/2000/svg"><sodipodi:namedview
     id="namedview1"
     pagecolor="#ffffff"
     bordercolor="#111111"
     borderopacity="1"
     inkscape:showpageshadow="0"
     inkscape:pageopacity="0"
     inkscape:pagecheckerboard="1"
     inkscape:deskcolor="#d1d1d1"
     inkscape:document-units="mm"
     inkscape:zoom="8"
     inkscape:cx="55.75"
     inkscape:cy="53.25"
     inkscape:window-width="2557"
     inkscape:window-height="988"
     inkscape:window-x="0"
     inkscape:window-y="22"
     inkscape:window-maximized="1"
     inkscape:current-layer="g1"
     showgrid="true"><inkscape:grid
       id="grid1"
       units="px"
       originx="0"
       originy="0"
       spacingx="1"
       spacingy="1"
       empcolor="#0099e5"
       empopacity="0.30196078"
       color="#0099e5"
       opacity="0.14901961"
       empspacing="1"
       enabled="true"
       visible="true"
       dotted="false" /></sodipodi:namedview><defs
     id="defs1" /><g
     inkscape:label="Layer 1"
     inkscape:groupmode="layer"
     id="layer1"><g
       id="g1"
       transform="translate(1.4999916,19)"><path
         id="rect1"
         style="fill:#ffffff;stroke-width:6.54213;stroke-linecap:round;stroke-opacity:0.142198"
         d="M 12,0 H 112 V 89 H 12 Z" /><path
         id="path10-2"
         style="fill:#000000;stroke-width:1.24682"
         d="M 30,29.501692 V 32 34.500738 h 2.456577 2.456577 V 32 29.501692 h -2.456577 z" /><path
         id="path9-0"
         style="fill:#000000;stroke-width:1.25471"
         d="M 25,24.504143 V 27 29.498284 h 2.490234 2.490235 V 27 24.504143 h -2.490235 z" /><path
         id="path7-7"
         style="fill:#000000;stroke-width:1.24682"
         d="M 19.99781,39.496094 V 41.999262 44.5 h 2.512691 2.51024 l -0.0268,-2.474006 -0.0293,-2.471574 -2.483411,-0.02917 z" /><path
         id="path6-5"
         style="fill:#000000;stroke-width:1.24682"
         d="m 30.002922,34.504146 -2.48342,0.02917 -2.485845,0.02917 -0.02683,2.471575 -0.02928,2.474005 h 2.512685 2.51269 v -2.500738 z" /><path
         id="path16-9"
         style="fill:#000000;stroke-width:1.245"
         d="m 19.999998,24.746469 h 2.509278 2.509277 l -0.02924,-2.470143 -0.02679,-2.467715 -2.482479,-0.02912 L 20,19.75037 v 2.49926 z" /><path
         id="path15"
         style="fill:#000000;stroke-width:1.0097"
         d="M 9.5000084,0 V 90 H 115.50001 c 2.7e-4,-42.666667 6e-5,-47.333333 0,-90 z M 11.500008,15 H 113.50001 c 0.13147,11.09929 0,22 0,35 v 38 h -17.000002 -85 c 0,-21 0,-8 0,-28 z"
         sodipodi:nodetypes="ccccccccccccc" /></g></g></svg>
