<?xml version="1.0" encoding="UTF-8" standalone="no"?>
<svg
   viewBox="0 0 128 128"
   version="1.1"
   id="svg136"
   sodipodi:docname="com.example.ditto.svg"
   inkscape:version="1.4 (e7c3feb100, 2024-10-09)"
   xmlns:inkscape="http://www.inkscape.org/namespaces/inkscape"
   xmlns:sodipodi="http://sodipodi.sourceforge.net/DTD/sodipodi-0.dtd"
   xmlns="http://www.w3.org/2000/svg"
   xmlns:svg="http://www.w3.org/2000/svg">
  <defs
     id="defs136" />
  <sodipodi:namedview
     id="namedview136"
     pagecolor="#ffffff"
     bordercolor="#111111"
     borderopacity="1"
     inkscape:showpageshadow="0"
     inkscape:pageopacity="0"
     inkscape:pagecheckerboard="1"
     inkscape:deskcolor="#d1d1d1"
     inkscape:zoom="6.421875"
     inkscape:cx="63.922141"
     inkscape:cy="64"
     inkscape:window-width="2556"
     inkscape:window-height="1028"
     inkscape:window-x="0"
     inkscape:window-y="0"
     inkscape:window-maximized="1"
     inkscape:current-layer="svg136" />
  <!-- 124x124 background with 2px border from edge -->
  <rect
     x="2"
     y="2"
     width="124"
     height="124"
     fill="white"
     id="rect1" />
  <!-- Using a 4x4 pixel grid (31x31 cells total in the 124x124 area) -->
  <!-- Sky area (black with white horizontal lines) -->
  <!-- Row 1 -->
  <path
     id="rect2"
     d="M 2 2 L 2 6 L 2 10 L 126 10 L 126 6 L 126 2 L 2 2 z " />
  <!-- Row 2 -->
  <!-- Row 3 -->
  <rect
     x="2"
     y="10"
     width="124"
     height="4"
     fill="white"
     id="rect4" />
  <!-- Row 4 -->
  <path
     id="rect5"
     d="M 2 14 L 2 18 L 2 22 L 126 22 L 126 18 L 126 14 L 2 14 z M 2 26 L 2 30 L 2 34 L 126 34 L 126 30 L 126 26 L 2 26 z " />
  <!-- Row 5 -->
  <!-- Row 6 -->
  <rect
     x="2"
     y="22"
     width="124"
     height="4"
     fill="white"
     id="rect7" />
  <!-- Row 7 -->
  <!-- Row 8 -->
  <!-- Row 9 -->
  <rect
     x="2"
     y="34"
     width="124"
     height="4"
     fill="white"
     id="rect10" />
  <!-- Row 10 -->
  <path
     id="rect11"
     d="M 2 38 L 2 42 L 2 46 L 126 46 L 126 42 L 126 38 L 2 38 z " />
  <!-- Row 11 -->
  <!-- Row 12 -->
  <rect
     x="2"
     y="46"
     width="124"
     height="4"
     fill="white"
     id="rect13" />
  <!-- Row 13 -->
  <rect
     x="2"
     y="50"
     width="124"
     height="4"
     fill="black"
     id="rect14" />
  <!-- Sun/Moon (Circle made of 4x4 rectangles) -->
  <path
     id="rect15"
     d="M 78 18 L 78 22 L 74 22 L 74 26 L 74 30 L 74 34 L 74 38 L 78 38 L 78 42 L 82 42 L 86 42 L 90 42 L 94 42 L 94 38 L 98 38 L 98 34 L 98 30 L 98 26 L 98 22 L 94 22 L 94 18 L 90 18 L 86 18 L 82 18 L 78 18 z "
     style="fill:#ffffff" />
  <!-- Landscape silhouette (mountains) -->
  <!-- Background is white below row 13 -->
  <rect
     x="2"
     y="54"
     width="124"
     height="72"
     fill="white"
     id="rect47" />
  <!-- Mountain peaks and valleys (built with 4x4 blocks) -->
  <rect
     x="2"
     y="54"
     width="4"
     height="4"
     fill="black"
     id="rect48" />
  <rect
     x="6"
     y="54"
     width="4"
     height="4"
     fill="black"
     id="rect49" />
  <rect
     x="10"
     y="50"
     width="4"
     height="4"
     fill="black"
     id="rect50" />
  <rect
     x="14"
     y="50"
     width="4"
     height="4"
     fill="black"
     id="rect51" />
  <rect
     x="18"
     y="54"
     width="4"
     height="4"
     fill="black"
     id="rect52" />
  <rect
     x="22"
     y="58"
     width="4"
     height="4"
     fill="black"
     id="rect53" />
  <rect
     x="26"
     y="54"
     width="4"
     height="4"
     fill="black"
     id="rect54" />
  <rect
     x="30"
     y="54"
     width="4"
     height="4"
     fill="black"
     id="rect55" />
  <rect
     x="34"
     y="50"
     width="4"
     height="4"
     fill="black"
     id="rect56" />
  <rect
     x="38"
     y="54"
     width="4"
     height="4"
     fill="black"
     id="rect57" />
  <rect
     x="42"
     y="54"
     width="4"
     height="4"
     fill="black"
     id="rect58" />
  <rect
     x="46"
     y="58"
     width="4"
     height="4"
     fill="black"
     id="rect59" />
  <rect
     x="50"
     y="54"
     width="4"
     height="4"
     fill="black"
     id="rect60" />
  <rect
     x="54"
     y="50"
     width="4"
     height="4"
     fill="black"
     id="rect61" />
  <rect
     x="58"
     y="46"
     width="4"
     height="4"
     fill="black"
     id="rect62" />
  <rect
     x="62"
     y="50"
     width="4"
     height="4"
     fill="black"
     id="rect63" />
  <rect
     x="66"
     y="54"
     width="4"
     height="4"
     fill="black"
     id="rect64" />
  <rect
     x="70"
     y="54"
     width="4"
     height="4"
     fill="black"
     id="rect65" />
  <rect
     x="74"
     y="50"
     width="4"
     height="4"
     fill="black"
     id="rect66" />
  <rect
     x="78"
     y="46"
     width="4"
     height="4"
     fill="black"
     id="rect67" />
  <rect
     x="82"
     y="50"
     width="4"
     height="4"
     fill="black"
     id="rect68" />
  <rect
     x="86"
     y="54"
     width="4"
     height="4"
     fill="black"
     id="rect69" />
  <rect
     x="90"
     y="54"
     width="4"
     height="4"
     fill="black"
     id="rect70" />
  <rect
     x="94"
     y="50"
     width="4"
     height="4"
     fill="black"
     id="rect71" />
  <rect
     x="98"
     y="46"
     width="4"
     height="4"
     fill="black"
     id="rect72" />
  <rect
     x="102"
     y="50"
     width="4"
     height="4"
     fill="black"
     id="rect73" />
  <rect
     x="106"
     y="54"
     width="4"
     height="4"
     fill="black"
     id="rect74" />
  <rect
     x="110"
     y="58"
     width="4"
     height="4"
     fill="black"
     id="rect75" />
  <rect
     x="114"
     y="54"
     width="4"
     height="4"
     fill="black"
     id="rect76" />
  <rect
     x="118"
     y="50"
     width="4"
     height="4"
     fill="black"
     id="rect77" />
  <rect
     x="122"
     y="54"
     width="4"
     height="4"
     fill="black"
     id="rect78" />
  <!-- Black shapes in white landscape -->
  <!-- Shape 1 -->
  <rect
     x="14"
     y="62"
     width="4"
     height="4"
     fill="black"
     id="rect79" />
  <rect
     x="18"
     y="62"
     width="4"
     height="4"
     fill="black"
     id="rect80" />
  <rect
     x="22"
     y="62"
     width="4"
     height="4"
     fill="black"
     id="rect81" />
  <rect
     x="14"
     y="66"
     width="4"
     height="4"
     fill="black"
     id="rect82" />
  <rect
     x="18"
     y="66"
     width="4"
     height="4"
     fill="black"
     id="rect83" />
  <rect
     x="22"
     y="66"
     width="4"
     height="4"
     fill="black"
     id="rect84" />
  <rect
     x="18"
     y="70"
     width="4"
     height="4"
     fill="black"
     id="rect85" />
  <!-- Shape 2 -->
  <rect
     x="42"
     y="70"
     width="4"
     height="4"
     fill="black"
     id="rect86" />
  <rect
     x="46"
     y="70"
     width="4"
     height="4"
     fill="black"
     id="rect87" />
  <rect
     x="50"
     y="70"
     width="4"
     height="4"
     fill="black"
     id="rect88" />
  <rect
     x="42"
     y="74"
     width="4"
     height="4"
     fill="black"
     id="rect89" />
  <rect
     x="46"
     y="74"
     width="4"
     height="4"
     fill="black"
     id="rect90" />
  <rect
     x="50"
     y="74"
     width="4"
     height="4"
     fill="black"
     id="rect91" />
  <rect
     x="54"
     y="74"
     width="4"
     height="4"
     fill="black"
     id="rect92" />
  <rect
     x="46"
     y="78"
     width="4"
     height="4"
     fill="black"
     id="rect93" />
  <rect
     x="50"
     y="78"
     width="4"
     height="4"
     fill="black"
     id="rect94" />
  <rect
     x="54"
     y="78"
     width="4"
     height="4"
     fill="black"
     id="rect95" />
  <!-- Shape 3 -->
  <rect
     x="78"
     y="66"
     width="4"
     height="4"
     fill="black"
     id="rect96" />
  <rect
     x="82"
     y="66"
     width="4"
     height="4"
     fill="black"
     id="rect97" />
  <rect
     x="86"
     y="66"
     width="4"
     height="4"
     fill="black"
     id="rect98" />
  <rect
     x="78"
     y="70"
     width="4"
     height="4"
     fill="black"
     id="rect99" />
  <rect
     x="82"
     y="70"
     width="4"
     height="4"
     fill="black"
     id="rect100" />
  <rect
     x="86"
     y="70"
     width="4"
     height="4"
     fill="black"
     id="rect101" />
  <rect
     x="90"
     y="70"
     width="4"
     height="4"
     fill="black"
     id="rect102" />
  <rect
     x="82"
     y="74"
     width="4"
     height="4"
     fill="black"
     id="rect103" />
  <rect
     x="86"
     y="74"
     width="4"
     height="4"
     fill="black"
     id="rect104" />
  <!-- Shape 4 -->
  <rect
     x="26"
     y="86"
     width="4"
     height="4"
     fill="black"
     id="rect105" />
  <rect
     x="30"
     y="86"
     width="4"
     height="4"
     fill="black"
     id="rect106" />
  <rect
     x="34"
     y="86"
     width="4"
     height="4"
     fill="black"
     id="rect107" />
  <rect
     x="26"
     y="90"
     width="4"
     height="4"
     fill="black"
     id="rect108" />
  <rect
     x="30"
     y="90"
     width="4"
     height="4"
     fill="black"
     id="rect109" />
  <!-- Shape 5 -->
  <rect
     x="66"
     y="86"
     width="4"
     height="4"
     fill="black"
     id="rect110" />
  <rect
     x="70"
     y="86"
     width="4"
     height="4"
     fill="black"
     id="rect111" />
  <rect
     x="74"
     y="86"
     width="4"
     height="4"
     fill="black"
     id="rect112" />
  <rect
     x="66"
     y="90"
     width="4"
     height="4"
     fill="black"
     id="rect113" />
  <rect
     x="70"
     y="90"
     width="4"
     height="4"
     fill="black"
     id="rect114" />
  <rect
     x="74"
     y="90"
     width="4"
     height="4"
     fill="black"
     id="rect115" />
  <rect
     x="70"
     y="94"
     width="4"
     height="4"
     fill="black"
     id="rect116" />
  <!-- Chicago-style "D" made of 4x4 pixel rects -->
</svg>
