<?xml version="1.0" encoding="UTF-8" standalone="no"?>
<!-- Created with Inkscape (http://www.inkscape.org/) -->

<svg
   width="16"
   height="16"
   viewBox="0 0 16 16"
   version="1.1"
   id="svg1"
   xml:space="preserve"
   inkscape:version="1.4 (e7c3feb100, 2024-10-09)"
   sodipodi:docname="no-repeat-symbolic.svg"
   xmlns:inkscape="http://www.inkscape.org/namespaces/inkscape"
   xmlns:sodipodi="http://sodipodi.sourceforge.net/DTD/sodipodi-0.dtd"
   xmlns="http://www.w3.org/2000/svg"
   xmlns:svg="http://www.w3.org/2000/svg"><sodipodi:namedview
     id="namedview1"
     pagecolor="#ffffff"
     bordercolor="#111111"
     borderopacity="1"
     inkscape:showpageshadow="false"
     inkscape:pageopacity="0"
     inkscape:pagecheckerboard="1"
     inkscape:deskcolor="#d1d1d1"
     inkscape:document-units="px"
     inkscape:zoom="45.254833"
     inkscape:cx="5.6126603"
     inkscape:cy="7.1042137"
     inkscape:window-width="2557"
     inkscape:window-height="1010"
     inkscape:window-x="0"
     inkscape:window-y="0"
     inkscape:window-maximized="1"
     inkscape:current-layer="layer1"
     showgrid="true"
     inkscape:lockguides="true"
     labelstyle="default"
     borderlayer="true"
     showborder="true"
     inkscape:clip-to-page="true"><inkscape:grid
       id="grid1"
       units="mm"
       originx="0"
       originy="0"
       spacingx="1"
       spacingy="1"
       empcolor="#0099e5"
       empopacity="0.30196078"
       color="#0099e5"
       opacity="0.14901961"
       empspacing="1"
       enabled="true"
       visible="true"
       dotted="false" /></sodipodi:namedview><defs
     id="defs1" /><g
     inkscape:label="Layer 1"
     inkscape:groupmode="layer"
     id="layer1"><path
       id="rect5"
       style="stroke-width:1.25791"
       d="M 11 1 L 11 3 L 4 3 L 4 4 L 3 4 L 3 6 L 3 7 L 4 7 L 4 6 L 5 6 L 5 5 L 11 5 L 11 7 L 12 7 L 12 6 L 13 6 L 13 5 L 14 5 L 14 3 L 13 3 L 13 2 L 12 2 L 12 1 L 11 1 z " /><path
       id="rect5-1"
       style="stroke-width:1.25791"
       d="m 5,15 v -2 h 7 v -1 h 1 V 10 9 h -1 v 1 h -1 v 1 H 5 V 9 H 4 v 1 H 3 v 1 H 2 v 2 h 1 v 1 h 1 v 1 z" /></g></svg>
