<?xml version="1.0" encoding="UTF-8" standalone="no"?>
<svg
   width="128"
   height="128"
   viewBox="0 0 128 128"
   version="1.1"
   id="svg1"
   xml:space="preserve"
   sodipodi:docname="app.svg"
   inkscape:version="1.4 (e7c3feb100, 2024-10-09)"
   xmlns:inkscape="http://www.inkscape.org/namespaces/inkscape"
   xmlns:sodipodi="http://sodipodi.sourceforge.net/DTD/sodipodi-0.dtd"
   xmlns="http://www.w3.org/2000/svg"
   xmlns:svg="http://www.w3.org/2000/svg"><defs
   id="defs19" /><sodipodi:namedview
   id="namedview19"
   pagecolor="#ffffff"
   bordercolor="#111111"
   borderopacity="1"
   inkscape:showpageshadow="0"
   inkscape:pageopacity="0"
   inkscape:pagecheckerboard="1"
   inkscape:deskcolor="#d1d1d1"
   showgrid="true"
   inkscape:zoom="6.4765625"
   inkscape:cx="64.077201"
   inkscape:cy="66.624849"
   inkscape:window-width="2557"
   inkscape:window-height="1010"
   inkscape:window-x="0"
   inkscape:window-y="0"
   inkscape:window-maximized="1"
   inkscape:current-layer="svg1"><inkscape:grid
     id="grid19"
     units="px"
     originx="0"
     originy="0"
     spacingx="1"
     spacingy="1"
     empcolor="#0099e5"
     empopacity="0.30196078"
     color="#0099e5"
     opacity="0.14901961"
     empspacing="1"
     enabled="true"
     visible="true" /></sodipodi:namedview>

  

  <!-- Clock Face -->
  
  
  
  
  
  
  
  
  
  

  <!-- Clock Center Circle -->
  

  <!-- Hour Hand --><rect
   style="fill:#ffffff;stroke-width:8;stroke-linecap:round;stroke-opacity:0.142198"
   id="rect1"
   width="104"
   height="116"
   x="12"
   y="6" />
  
  

  <!-- Minute Hand -->
  
  
  

  <!-- Clock Top Button -->
  

  <!-- Clock Bottom Base -->
  
<rect
   style="fill:#000000;stroke-width:1.23603;-inkscape-stroke:none"
   id="rect2"
   width="4"
   height="112"
   x="14"
   y="8" /><rect
   style="fill:#000000;stroke-width:1.23349;-inkscape-stroke:none"
   id="rect3"
   width="100"
   height="4"
   x="14"
   y="116" /><rect
   style="fill:#000000;stroke-width:1.24663;-inkscape-stroke:none"
   id="rect4"
   width="4"
   height="110"
   x="110"
   y="8" /><rect
   style="fill:#000000;stroke-width:1.25791;-inkscape-stroke:none"
   id="rect5"
   width="96"
   height="4"
   x="16"
   y="8" /><path
   style="font-weight:500;font-size:128px;font-family:'Chicago 12.1';-inkscape-font-specification:'Chicago 12.1 Medium';stroke-width:1.25791"
   d="m 80,100 h -8 v -8 -8 -8 -8 h -8 -8 v 8 8 8 8 h -8 -8 v -8 -8 -8 -8 -8 -8 -8 -8 h 8 v -8 h 8 8 8 8 v 8 h 8 v 8 8 8 8 8 8 8 8 z M 64,60 h 8 v -8 -8 -8 h -8 -8 v 8 8 8 z"
   id="text5"
   aria-label="A" /><rect
   style="fill:#000000;stroke-width:1.25791;-inkscape-stroke:none"
   id="rect6"
   width="8"
   height="8"
   x="88"
   y="28" /><rect
   style="fill:#000000;stroke-width:1.25791;-inkscape-stroke:none"
   id="rect7"
   width="4"
   height="4"
   x="80"
   y="32" /><rect
   style="fill:#000000;stroke-width:1.25791;-inkscape-stroke:none"
   id="rect8"
   width="4"
   height="4"
   x="84"
   y="28" /><rect
   style="fill:#000000;stroke-width:1.25791;-inkscape-stroke:none"
   id="rect9"
   width="4"
   height="4"
   x="88"
   y="24" /><rect
   style="fill:#000000;stroke-width:1.25791;-inkscape-stroke:none"
   id="rect10"
   width="4"
   height="4"
   x="96"
   y="24" /><rect
   style="fill:#000000;stroke-width:1.25791;-inkscape-stroke:none"
   id="rect10-3"
   width="4"
   height="4"
   x="100"
   y="20" /><rect
   style="fill:#000000;stroke-width:1.25791;-inkscape-stroke:none"
   id="rect11"
   width="4"
   height="4"
   x="96"
   y="36" /><rect
   style="fill:#000000;stroke-width:1.25791;-inkscape-stroke:none"
   id="rect12"
   width="4"
   height="4"
   x="92"
   y="40" /><rect
   style="fill:#000000;stroke-width:1.25791;-inkscape-stroke:none"
   id="rect13"
   width="4"
   height="4"
   x="92"
   y="20" /><rect
   style="fill:#000000;stroke-width:1.25791;-inkscape-stroke:none"
   id="rect14"
   width="4"
   height="8"
   x="100"
   y="28" /><rect
   style="fill:#000000;stroke-width:1.25791;-inkscape-stroke:none"
   id="rect15"
   width="4"
   height="4"
   x="84"
   y="20" /><rect
   style="fill:#000000;stroke-width:1.25791;-inkscape-stroke:none"
   id="rect10-33"
   width="4"
   height="4"
   x="100"
   y="40" /></svg>
